<svg width="150" height="10" viewBox="0 0 150 10" fill="none" xmlns="http://www.w3.org/2000/svg">
<g clip-path="url(#clip0_303_748)">
<path d="M1.11118 1.8047C2.39957 0.574442 4.31961 0.186685 6.12437 0.057437C9.0192 -0.116596 11.9249 0.130372 14.7421 0.78986C19.0171 1.55157 23.2367 2.57329 27.3753 3.84875L30.0424 4.64337C32.3183 5.32791 34.6244 6.01724 36.9405 6.64912C41.5477 2.66157 48.3004 0.6606 55.9907 1.01484C61.5904 1.26855 67.125 2.69508 72.2736 4.19819L75.0007 5.01198L77.7329 4.19819C82.8815 2.69508 88.4161 1.26855 94.0158 1.01484C101.696 0.660605 108.449 2.66157 113.066 6.64913C115.382 6.01725 117.688 5.32792 119.964 4.64338L122.626 3.84876C126.762 2.57531 130.978 1.5552 135.249 0.794662C138.067 0.135175 140.972 -0.111793 143.867 0.0622407C145.687 0.191489 147.607 0.579247 148.88 1.8095C150.154 3.03975 150.464 5.33271 149.061 6.44329C147.963 7.30974 146.288 7.14219 145.05 6.49594C143.812 5.8497 142.96 3.99235 141.867 3.14506C140.638 2.17434 139.172 1.51571 137.606 1.23026C132.447 1.87651 127.278 3.2743 122.847 4.58115L120.185 5.3758C112.525 7.67355 104.614 10.0479 96.5224 10.0479C96.1314 10.0479 95.7404 10.0479 95.3493 10.0479C88.401 9.84682 81.568 7.798 75.5371 5.98852L75.4068 5.95021L75.0058 5.83054L74.6247 5.94066L74.4743 5.98852C68.4585 7.798 61.6105 9.84681 54.6622 10.0479C54.2711 10.0479 53.8801 10.0479 53.4891 10.0479C45.3978 10.0479 37.487 7.6544 29.8268 5.3758L27.1648 4.58114C22.7331 3.27429 17.5645 1.8765 12.4059 1.23025C10.8393 1.5157 9.3736 2.17433 8.1447 3.14505C7.05182 4.01628 6.2146 5.87362 4.9613 6.49593C3.70801 7.11824 2.0336 7.30972 0.950744 6.44328C-0.473008 5.3327 -0.197281 3.03974 1.11118 1.8047ZM95.3593 9.25803C101.039 9.42558 106.664 8.33894 112.184 6.86455C107.737 3.21208 101.325 1.38345 94.0459 1.71375C88.5314 1.96746 83.0469 3.37961 77.9485 4.87314L76.259 5.35184C82.1245 7.14217 88.7118 9.07135 95.3644 9.26283L95.3593 9.25803ZM54.6321 9.25803C61.2846 9.06655 67.8719 7.13738 73.7324 5.38056L72.0429 4.90186C66.9445 3.40833 61.4651 1.99618 55.9455 1.74247C48.6664 1.41217 42.2545 3.2408 37.8078 6.89805C43.3323 8.34372 48.9321 9.43037 54.6371 9.26282L54.6321 9.25803Z" fill="#B98D58"/>
</g>
<defs>
<clipPath id="clip0_303_748">
<rect width="150" height="10" fill="white" transform="matrix(-1 -8.74228e-08 -8.74228e-08 1 149.998 0)"/>
</clipPath>
</defs>
</svg>
