<svg width="200" height="150" viewBox="0 0 200 150" fill="none" xmlns="http://www.w3.org/2000/svg">
<g opacity="0.3" clip-path="url(#clip0_303_756)">
<path d="M156.068 27.5455C140.708 31.1111 116.591 41.3182 114.679 60.1256C112.721 79.4992 135.015 82.8352 148.627 79.3309C158.354 76.8212 168.411 72.873 176.434 66.5987C182.232 62.0078 189.404 54.5859 188.298 46.3529C186.192 30.5755 164.63 24.2554 151.989 27.8363C151.841 27.9002 151.721 28.0174 151.652 28.1658C151.582 28.3142 151.568 28.4835 151.612 28.6417C151.656 28.7999 151.756 28.9361 151.891 29.0246C152.027 29.113 152.189 29.1476 152.348 29.1217C159.684 27.2798 167.42 28.1468 174.193 31.5702C183.158 36.1611 190.629 45.5877 184.473 55.8866C177.167 68.2362 161.193 74.4951 148.194 77.7087C139.976 79.744 130.801 80.5398 123.42 75.4286C115.59 69.996 114.32 60.1256 118.937 51.9538C126.124 39.0992 142.964 31.6467 156.292 28.1729C156.696 28.0658 156.517 27.4537 156.113 27.5455H156.068Z" fill="#B98D58"/>
<path d="M153.991 26.8107C150.435 28.188 146.819 29.4582 143.398 31.1568C143.329 31.2006 143.278 31.2679 143.253 31.3466C143.228 31.4254 143.231 31.5106 143.261 31.5874C143.291 31.6642 143.347 31.7275 143.419 31.7663C143.49 31.8051 143.572 31.8169 143.652 31.7995C147.268 30.56 150.719 28.8767 154.186 27.3158C154.455 27.1933 154.26 26.7036 153.991 26.8107Z" fill="#B98D58"/>
<path d="M114.798 60.2938C113.723 66.415 120.447 65.7417 119.983 71.113C119.984 71.2645 120.022 71.4132 120.096 71.5447C120.169 71.6762 120.274 71.7858 120.402 71.8629L121.298 72.5056C122.03 73.0106 122.957 72.0006 122.508 71.2661C116.696 61.8394 151.541 48.0973 156.397 47.9443C159.505 47.8371 161.104 48.8012 164.033 47.4393C166.468 46.3069 168.515 44.3787 170.951 43.2615C172.848 42.3587 185.579 37.9973 185.28 42.9708C185.191 44.3481 187.417 44.3634 187.387 42.9708C187.253 37.8137 180.887 38.3799 177.301 39.0532C172.251 39.9255 169.322 42.3127 164.944 44.6388C161.209 46.6129 157.593 45.2662 153.738 46.368C143.812 49.5344 134.429 54.2691 125.93 60.4009C121.836 63.2779 117.951 67.0424 120.984 72.1842L122.195 70.9447C122.195 70.9447 122.583 67.5474 122.643 67.073C122.643 66.9296 122.605 66.789 122.534 66.6653C122.463 66.5416 122.362 66.4394 122.24 66.3691C120.028 64.8388 115.605 62.8341 115.381 60.3703C115.381 60.0489 114.858 59.9265 114.798 60.2938Z" fill="#B98D58"/>
<path d="M179.737 38.992L179.991 39.1757C180.115 39.2511 180.257 39.2908 180.401 39.2908C180.546 39.2908 180.688 39.2511 180.812 39.1757C181.257 38.8751 181.639 38.4866 181.936 38.0329C182.232 37.5792 182.437 37.0695 182.539 36.5335C182.64 35.9976 182.637 35.4463 182.527 34.9119C182.418 34.3776 182.206 33.871 181.903 33.4217C180.753 31.5547 177.421 29.8867 175.568 31.4017C174.955 31.8761 175.284 32.7943 175.777 33.1463C176.554 33.6972 177.555 33.5135 178.422 33.8196C178.835 33.9391 179.216 34.1545 179.534 34.4491C179.853 34.7437 180.101 35.1095 180.26 35.5182C180.344 35.9183 180.349 36.3317 180.274 36.7338C180.2 37.136 180.048 37.5188 179.826 37.8596C179.677 38.1503 179.348 38.7318 179.737 38.992Z" fill="#B98D58"/>
<path d="M167.917 44.2258C161.941 47.6842 157.458 48.4494 150.734 48.2351C146.759 48.1127 144.115 48.3729 140.693 50.5306C136.763 53.0097 133.476 55.1215 129.352 57.2945C127.469 58.2892 126.618 58.8248 126.005 60.9672C125.964 61.1431 125.979 61.3278 126.049 61.4939C126.118 61.6601 126.238 61.799 126.391 61.89C126.543 61.9809 126.72 62.0192 126.896 61.9991C127.071 61.979 127.235 61.9016 127.365 61.7783C129.785 59.5135 133.655 59.085 136.449 57.3251C141.052 54.4482 143.547 51.4028 149.524 51.0968C152.916 50.9131 155.919 51.51 159.221 50.3623C162.523 49.2145 165.392 46.8273 168.186 44.8226C168.235 44.7716 168.267 44.7067 168.279 44.6365C168.291 44.5663 168.281 44.4941 168.252 44.4295C168.223 44.3648 168.176 44.3107 168.116 44.2743C168.056 44.238 167.987 44.221 167.917 44.2258Z" fill="#B98D58"/>
<path d="M116.173 67.0119C119.042 68.68 118.952 72.521 120.865 75.046C122.466 76.9459 124.476 78.4388 126.737 79.4073C133.207 82.2856 140.31 83.3422 147.312 82.4679C162.404 80.7387 175.508 69.996 184.488 57.9831C185.146 57.1109 183.816 56.2692 183.113 56.8813C171.698 66.7824 162.747 78.1525 146.789 79.8358C138.556 80.7234 126.767 79.8358 121.657 72.0619C119.923 69.4451 119.654 67.0885 116.666 65.8642C115.979 65.5888 115.56 66.7059 116.173 67.0578V67.0119Z" fill="#B98D58"/>
<path d="M183.069 60.5387C177.719 72.4291 166.214 78.0453 154.141 80.1418C140.17 82.5597 121.447 84.1053 117.129 66.5834C117.072 66.4215 116.963 66.2845 116.82 66.1953C116.676 66.1061 116.507 66.0701 116.341 66.0934C116.174 66.1167 116.021 66.1979 115.906 66.3233C115.791 66.4487 115.722 66.6108 115.71 66.7823C115.62 69.4144 116.113 70.8988 118.31 72.2608C118.728 72.5209 119.086 71.8782 118.683 71.6028C115.067 69.1849 115.695 68.4197 116.815 71.4497C117.391 72.8764 118.155 74.2152 119.087 75.4285C120.852 77.838 123.172 79.7622 125.84 81.0294C132.998 84.3501 142.725 82.9882 150.226 82.1006C163.958 80.4479 177.645 74.4491 183.278 60.6764C183.28 60.6506 183.274 60.6247 183.261 60.6024C183.249 60.5802 183.229 60.5626 183.206 60.5524C183.183 60.5422 183.157 60.5398 183.132 60.5456C183.107 60.5514 183.085 60.5651 183.069 60.5846V60.5387Z" fill="#B98D58"/>
<path d="M178.377 31.7232C179.053 31.6799 179.728 31.8356 180.321 32.1718C180.914 32.508 181.4 33.0107 181.724 33.6208C182.441 34.998 181.828 36.1151 181.455 37.4771C181.424 37.6084 181.421 37.7451 181.448 37.8774C181.476 38.0096 181.531 38.1339 181.612 38.2411C181.692 38.3483 181.795 38.4357 181.912 38.4968C182.03 38.5579 182.16 38.5912 182.292 38.5942C182.774 38.6418 183.26 38.5517 183.696 38.3341C183.733 38.3134 183.765 38.2854 183.791 38.2517C183.817 38.218 183.836 38.1794 183.847 38.138C183.859 38.0967 183.861 38.0534 183.856 38.0108C183.851 37.9683 183.837 37.9273 183.816 37.8903C183.54 37.4814 183.164 37.1542 182.725 36.9415L182.904 38.3341C183.52 37.5428 183.855 36.5608 183.855 35.5489C183.855 34.537 183.52 33.5551 182.904 32.7638C182.362 32.0608 181.636 31.5306 180.81 31.2351C179.985 30.9397 179.094 30.8914 178.242 31.0958C178.173 31.1116 178.11 31.1513 178.066 31.2084C178.021 31.2654 177.997 31.3364 177.997 31.4095C177.997 31.4826 178.021 31.5535 178.066 31.6106C178.11 31.6676 178.173 31.7073 178.242 31.7232H178.377Z" fill="#B98D58"/>
<path d="M153.677 27.3923C159.46 27.1169 180.857 28.6931 181.574 37.477C181.599 37.6478 181.683 37.8038 181.81 37.9167C181.938 38.0295 182.101 38.0916 182.269 38.0916C182.438 38.0916 182.601 38.0295 182.728 37.9167C182.856 37.8038 182.94 37.6478 182.964 37.477C183.577 32.4117 179.139 30.4682 175.104 29.2134C168.203 26.8219 160.863 26.0581 153.633 26.9792C153.394 26.9792 153.453 27.4076 153.633 27.3923H153.677Z" fill="#B98D58"/>
<path d="M126.468 67.5474C126.173 66.0811 126.272 64.5601 126.757 63.1474C127.241 61.7348 128.092 60.4838 129.217 59.5286C129.725 59.0695 128.963 58.2738 128.47 58.7634C127.393 59.9267 126.624 61.353 126.237 62.9066C125.85 64.4602 125.857 66.0894 126.259 67.6392C126.259 67.7769 126.498 67.7157 126.468 67.6392V67.5474Z" fill="#B98D58"/>
<path d="M149.001 57.2639C150.495 55.0603 151.122 50.8672 148.537 49.138C148.306 48.9949 148.048 48.9015 147.78 48.8634C147.511 48.8252 147.239 48.8432 146.977 48.9161C146.716 48.9891 146.472 49.1155 146.26 49.2878C146.048 49.4601 145.872 49.6746 145.743 49.9185C145.415 50.6683 145.743 51.4488 145.743 52.1527C145.639 53.683 144.025 54.5094 142.949 55.3358C142.909 55.3558 142.875 55.3847 142.847 55.4203C142.82 55.4558 142.8 55.4972 142.79 55.5414C142.78 55.5856 142.78 55.6314 142.79 55.6757C142.799 55.72 142.818 55.7616 142.845 55.7975C142.872 55.8333 142.907 55.8626 142.946 55.8831C142.986 55.9036 143.029 55.9148 143.074 55.9161C143.118 55.9173 143.162 55.9084 143.202 55.8901C143.243 55.8718 143.279 55.8445 143.308 55.8101C144.23 55.125 145.094 54.3623 145.893 53.53C146.416 52.8719 146.281 52.5506 146.431 51.816C146.58 51.0815 146.834 50.3776 147.716 50.3929L148.672 50.7754C149.157 51.3653 149.459 52.09 149.539 52.8567C149.788 54.34 149.557 55.8662 148.881 57.2027H148.986L149.001 57.2639Z" fill="#B98D58"/>
<path d="M164.765 36.7885C163.121 37.569 163.001 39.1758 162.643 40.8132C162.342 42.3253 161.473 43.6555 160.222 44.5165C159.176 45.2358 158.026 45.4041 157.234 46.46C156.965 46.7419 156.805 47.1135 156.782 47.5067C156.76 47.8998 156.876 48.2881 157.11 48.6005C157.344 48.9129 157.681 49.1283 158.057 49.2074C158.434 49.2864 158.826 49.2238 159.161 49.0309C160.82 48.1587 161.955 45.6643 162.703 43.9809C163.45 42.2976 163.196 38.3341 165.049 37.2476C165.347 37.0793 165.049 36.6355 164.78 36.7885H164.765Z" fill="#B98D58"/>
<path d="M122.314 51.1579C125.326 46.1271 129.768 42.1597 135.045 39.7878C135.463 39.6042 135.045 38.9767 134.686 39.1604C129.335 41.5989 124.896 45.7426 122.03 50.9743C122.018 51.0136 122.02 51.0559 122.034 51.0944C122.048 51.1328 122.075 51.1653 122.109 51.1865C122.144 51.2076 122.184 51.2163 122.224 51.2112C122.264 51.206 122.301 51.1872 122.329 51.1579H122.314Z" fill="#B98D58"/>
<path d="M126.857 48.1279C127.47 47.3999 128.151 46.7337 128.889 46.1385C129.621 45.5417 130.488 45.1285 131.22 44.6082C131.384 44.4858 131.309 44.1797 131.085 44.2563C129.301 45.0623 127.756 46.3341 126.603 47.9443C126.468 48.1126 126.692 48.3575 126.842 48.1891L126.857 48.1279Z" fill="#B98D58"/>
<path d="M128.261 49.3521C128.984 48.9888 129.645 48.5082 130.218 47.9289C130.413 47.7452 130.114 47.4392 129.919 47.6381C129.38 48.1961 128.76 48.6658 128.082 49.0307C127.857 49.1378 128.082 49.4592 128.261 49.3521Z" fill="#B98D58"/>
<path d="M169.501 56.6058C170.428 55.9324 171.324 55.2438 172.221 54.5246C173.245 53.7852 174.201 52.9501 175.075 52.0302C175.239 51.8313 175.075 51.464 174.776 51.6323C173.884 52.3596 173.036 53.1415 172.236 53.9737C171.309 54.8306 170.353 55.657 169.397 56.4527C169.307 56.5293 169.397 56.667 169.501 56.6058Z" fill="#B98D58"/>
<path d="M173.745 55.703L174.582 54.8767C174.955 54.5247 174.387 53.9432 174.029 54.3105L173.192 55.1215C172.819 55.4888 173.386 56.055 173.745 55.703Z" fill="#B98D58"/>
<path d="M176.195 55.9173H176.509C176.913 55.8408 176.748 55.2134 176.345 55.2899H176.031C175.628 55.2899 175.792 55.9938 176.195 55.9173Z" fill="#B98D58"/>
<path d="M136.24 75.2448C141.33 76.5595 146.654 76.6067 151.765 75.3825C152.094 75.306 151.944 74.801 151.616 74.8622C146.585 76.0555 141.359 76.0868 136.315 74.954C136.136 74.954 136.046 75.1989 136.24 75.2448Z" fill="#B98D58"/>
<path d="M154.619 73.3014C154.694 73.3014 154.767 73.2707 154.82 73.2162C154.873 73.1617 154.903 73.0877 154.903 73.0106C154.903 72.9335 154.873 72.8596 154.82 72.805C154.767 72.7505 154.694 72.7198 154.619 72.7198C154.544 72.7198 154.472 72.7505 154.418 72.805C154.365 72.8596 154.335 72.9335 154.335 73.0106C154.335 73.0877 154.365 73.1617 154.418 73.2162C154.472 73.2707 154.544 73.3014 154.619 73.3014Z" fill="#B98D58"/>
<path d="M157.981 33.5137L159.61 33.177C160.043 33.0852 159.849 32.3659 159.43 32.5037L157.831 32.9934C157.775 33.0222 157.73 33.0705 157.705 33.1298C157.68 33.1891 157.676 33.2555 157.693 33.3176C157.711 33.3796 157.75 33.4333 157.802 33.4691C157.855 33.505 157.918 33.5207 157.981 33.5137Z" fill="#B98D58"/>
<path d="M161.343 34.8144C161.811 34.7311 162.264 34.5763 162.688 34.3553C162.732 34.3243 162.765 34.2799 162.783 34.2284C162.801 34.1768 162.803 34.1209 162.788 34.0683C162.773 34.0158 162.742 33.9694 162.7 33.9357C162.658 33.9021 162.607 33.8829 162.553 33.8809C162.083 33.933 161.621 34.0462 161.179 34.2175C161.101 34.2399 161.036 34.2927 160.997 34.3645C160.957 34.4362 160.948 34.521 160.969 34.6001C160.991 34.6792 161.043 34.7463 161.113 34.7865C161.183 34.8267 161.266 34.8367 161.343 34.8144Z" fill="#B98D58"/>
<path d="M148.717 43.5982C148.009 45.6561 146.725 47.4551 145.026 48.7707C143.61 49.5547 142.265 50.4663 141.007 51.4946C140.603 51.9078 141.111 52.4587 141.574 52.2597C143.367 51.2725 145 50.0078 146.416 48.5105C147.665 47.1486 148.568 45.4933 149.045 43.6901C149.045 43.4758 148.791 43.3993 148.717 43.5982Z" fill="#B98D58"/>
<path d="M149.135 41.5783C149.06 41.8078 149.001 42.0527 148.926 42.2823C148.935 42.3093 148.952 42.3327 148.975 42.3492C148.998 42.3658 149.025 42.3747 149.053 42.3747C149.081 42.3747 149.108 42.3658 149.131 42.3492C149.154 42.3327 149.171 42.3093 149.18 42.2823C149.255 42.0374 149.315 41.8078 149.389 41.5783C149.393 41.5461 149.385 41.5138 149.367 41.4869C149.35 41.46 149.324 41.4403 149.293 41.4311C149.263 41.422 149.231 41.4241 149.202 41.437C149.173 41.4499 149.149 41.4729 149.135 41.5018V41.5783Z" fill="#B98D58"/>
<path d="M185.997 55.3509C178.616 66.4762 168.665 77.326 155.769 81.1671C143.427 84.8245 127.544 86.0028 118.325 74.954C117.891 74.449 117.01 75.1224 117.413 75.6733C125.153 86.569 141.171 86.1711 152.647 83.4778C166.304 80.2795 180.783 69.0471 186.416 55.5957C186.447 55.5389 186.456 55.4716 186.439 55.4084C186.422 55.3453 186.382 55.2915 186.326 55.2591C186.271 55.2266 186.205 55.218 186.143 55.2353C186.081 55.2525 186.029 55.2941 185.997 55.3509Z" fill="#B98D58"/>
<path d="M120.924 66.0324C130.744 60.0007 141.342 55.4109 152.407 52.3975C156.382 51.3262 160.865 51.0202 164.645 49.2297C169.128 47.0873 171.817 42.4505 176.868 41.2722C177.495 41.1192 177.226 40.1092 176.584 40.2622C171.922 41.3793 170.054 44.8531 166.124 47.2863C161.328 50.3469 155.022 50.5305 149.688 52.1526C139.453 55.2186 129.697 59.7634 120.715 65.6499C120.675 65.6816 120.647 65.7273 120.637 65.7786C120.627 65.8298 120.636 65.883 120.661 65.9281C120.687 65.9732 120.728 66.0072 120.776 66.0236C120.825 66.04 120.877 66.0377 120.924 66.0171V66.0324Z" fill="#B98D58"/>
<path d="M176.001 98.7042C160.058 96.3017 132.056 96.8985 125.004 115.66C118.609 132.876 138.033 142.716 151.481 144.277C161.433 145.44 172.116 145.516 181.769 142.501C188.672 140.344 197.607 136.044 199.445 128.086C203.046 112.569 185.101 98.796 172.056 97.48C171.324 97.48 171.145 98.689 171.877 98.8114C184.563 100.831 207.439 117.512 195.306 133.09C186.491 144.414 166.573 144.139 153.902 142.899C146.431 142.165 138.287 140.65 132.37 135.431C124.287 128.316 123.405 116.915 131.145 109.156C142.068 98.2757 161.911 97.6636 175.971 99.3929C176.315 99.3929 176.405 98.7961 175.971 98.7502L176.001 98.7042Z" fill="#B98D58"/>
<path d="M174.238 97.2353C170.472 97.2353 166.677 97.0364 162.912 97.3577C162.835 97.3745 162.766 97.4178 162.716 97.4805C162.666 97.5431 162.639 97.6214 162.639 97.7021C162.639 97.7827 162.666 97.8609 162.716 97.9236C162.766 97.9863 162.835 98.0297 162.912 98.0464C166.677 98.2453 170.472 97.9545 174.238 97.7709C174.297 97.7564 174.349 97.7221 174.386 97.6736C174.424 97.625 174.444 97.565 174.444 97.5031C174.444 97.4413 174.424 97.3812 174.386 97.3327C174.349 97.2841 174.297 97.2498 174.238 97.2353Z" fill="#B98D58"/>
<path d="M125.885 113.946C122.419 118.935 129.232 121.108 126.976 125.791C126.898 125.925 126.857 126.078 126.857 126.234C126.857 126.391 126.898 126.544 126.976 126.678C127.17 127 127.379 127.306 127.589 127.612C128.022 128.254 129.337 128.117 129.217 127.153C127.723 115.813 162.807 115.522 169.128 117.848C172.654 119.149 173.61 120.312 177.391 120.052C178.631 119.96 200.924 116.838 197.801 123.74C197.741 123.871 197.707 124.013 197.701 124.158C197.696 124.303 197.719 124.447 197.769 124.582C197.82 124.718 197.897 124.841 197.995 124.945C198.094 125.049 198.212 125.132 198.342 125.188C198.473 125.244 198.613 125.272 198.755 125.271C198.896 125.27 199.036 125.239 199.166 125.181C199.295 125.123 199.412 125.038 199.509 124.933C199.606 124.827 199.681 124.703 199.729 124.566C201.373 119.853 195.246 118.032 191.84 117.313C188.444 116.597 184.949 116.529 181.53 117.114C177.914 117.711 175.747 118.399 172.086 117.114C169.8 116.303 171.115 116.134 168.754 115.507C160.416 113.273 148.687 115.905 140.364 117.389C134.552 118.415 126.722 119.455 127.529 127.168L129.157 126.709C129.633 125.529 130.188 124.384 130.816 123.281C130.89 123.156 130.929 123.014 130.929 122.868C130.929 122.722 130.89 122.579 130.816 122.455C128.963 119.715 124.929 119.287 126.498 114.191C126.602 113.839 126.139 113.686 125.945 113.961L125.885 113.946Z" fill="#B98D58"/>
<path d="M193.947 118.093C195.56 120.328 197.966 116.425 198.041 114.864C198.175 112.339 195.59 108.881 192.916 109.447C192.732 109.499 192.565 109.6 192.431 109.739C192.297 109.878 192.201 110.051 192.153 110.24C192.104 110.429 192.105 110.627 192.155 110.816C192.205 111.004 192.302 111.176 192.437 111.314C193.379 112.538 195.217 112.645 195.635 114.375C196.053 116.104 194.529 116.548 193.947 117.741C193.92 117.785 193.906 117.835 193.906 117.887C193.906 117.938 193.92 117.988 193.947 118.032V118.093Z" fill="#B98D58"/>
<path d="M181.141 118.614C173.461 119.761 168.515 117.221 161.403 114.88C158.592 113.961 155.587 113.855 152.721 114.574C148.403 115.507 143.756 115.538 139.617 116.471C138.896 116.511 138.197 116.742 137.59 117.142C136.982 117.542 136.486 118.096 136.151 118.751C136.071 118.893 136.034 119.056 136.045 119.219C136.056 119.382 136.114 119.538 136.212 119.668C136.309 119.797 136.442 119.894 136.594 119.946C136.745 119.998 136.908 120.003 137.062 119.96C139.871 118.858 142.77 119.7 145.684 119.394C150.943 118.843 155.187 116.134 160.626 117.741C163.958 118.736 166.603 120.802 170.189 121.077C173.775 121.353 177.66 120.129 181.321 119.272C181.754 119.18 181.56 118.552 181.141 118.614Z" fill="#B98D58"/>
<path d="M124.75 120.618C126.632 123.25 125.542 127.306 126.498 130.336C127.635 133.231 129.496 135.769 131.892 137.696C136.844 142.094 142.759 145.202 149.135 146.756C163.599 150.398 179.184 145.225 191.616 137.574C192.437 137.069 191.9 135.569 190.928 135.921C177.122 140.91 164.989 148.057 149.823 144.261C143.081 142.703 136.881 139.29 131.892 134.391C127.738 129.938 129.516 123.847 125.706 119.792C125.213 119.272 124.212 119.976 124.69 120.588L124.75 120.618Z" fill="#B98D58"/>
<path d="M189.449 139.456C179.214 149.602 164.66 149.571 151.66 146.021C138.661 142.471 123.838 137.299 125.87 120.572C125.866 120.41 125.811 120.253 125.713 120.126C125.614 119.999 125.478 119.907 125.325 119.866C125.172 119.824 125.009 119.835 124.863 119.896C124.716 119.957 124.592 120.066 124.511 120.205C123.48 122.654 123.285 124.153 124.914 126.326C125.198 126.709 125.855 126.326 125.571 125.928C123.749 123.342 123.898 120.481 123.838 124.918C123.86 126.095 124.011 127.265 124.286 128.407C124.829 131.068 125.942 133.571 127.544 135.738C132.116 141.859 140.484 144.078 147.297 146.235C161.687 150.75 178.407 151.515 189.613 139.609C189.627 139.586 189.633 139.558 189.63 139.531C189.627 139.504 189.615 139.478 189.596 139.459C189.577 139.439 189.552 139.427 189.525 139.424C189.499 139.42 189.472 139.427 189.449 139.441V139.456Z" fill="#B98D58"/>
<path d="M195.351 110.886C196.041 111.12 196.645 111.565 197.081 112.162C197.516 112.758 197.763 113.477 197.787 114.222C197.787 115.645 196.86 116.41 196.098 117.451C196.032 117.568 195.993 117.7 195.984 117.836C195.975 117.971 195.997 118.107 196.047 118.233C196.098 118.358 196.176 118.471 196.275 118.56C196.375 118.65 196.493 118.716 196.621 118.751C197.01 118.95 197.443 119.039 197.876 119.011C197.925 119.011 197.974 118.998 198.017 118.976C198.061 118.953 198.099 118.921 198.13 118.882C198.16 118.842 198.181 118.796 198.191 118.747C198.202 118.698 198.201 118.647 198.19 118.598C198.056 118.097 197.799 117.639 197.443 117.267L197.07 118.797C197.931 118.344 198.617 117.606 199.019 116.704C199.42 115.801 199.512 114.787 199.281 113.824C199.062 112.922 198.588 112.107 197.918 111.481C197.248 110.855 196.412 110.445 195.515 110.304C195.434 110.282 195.348 110.293 195.275 110.336C195.202 110.379 195.149 110.45 195.127 110.534C195.105 110.617 195.117 110.705 195.159 110.78C195.201 110.855 195.27 110.909 195.351 110.931V110.886Z" fill="#B98D58"/>
<path d="M173.894 97.6179C178.22 99.1325 182.303 101.293 186.012 104.03C190.076 106.953 198.085 111.176 196.277 117.42C196.232 117.588 196.248 117.768 196.323 117.925C196.398 118.083 196.526 118.207 196.683 118.274C196.841 118.342 197.017 118.348 197.179 118.292C197.341 118.236 197.477 118.122 197.562 117.971C200.117 113.089 196.068 109.493 192.497 106.723C186.879 102.377 180.932 98.735 173.999 97.22C173.947 97.2058 173.892 97.2131 173.846 97.2404C173.8 97.2676 173.766 97.3126 173.752 97.3654C173.738 97.4181 173.745 97.4744 173.772 97.5217C173.799 97.5691 173.843 97.6037 173.894 97.6179Z" fill="#B98D58"/>
<path d="M134.223 125.026C134.451 123.551 135.069 122.169 136.009 121.028C136.949 119.887 138.176 119.031 139.557 118.552C139.629 118.532 139.695 118.496 139.752 118.447C139.808 118.398 139.854 118.337 139.886 118.269C139.919 118.201 139.936 118.126 139.938 118.05C139.94 117.974 139.926 117.899 139.897 117.829C139.868 117.759 139.825 117.696 139.771 117.644C139.716 117.593 139.652 117.553 139.582 117.529C139.511 117.505 139.437 117.496 139.363 117.504C139.289 117.512 139.218 117.535 139.154 117.573C137.746 118.255 136.533 119.296 135.631 120.595C134.728 121.895 134.166 123.41 133.999 124.995C133.999 125.117 134.193 125.148 134.223 124.995V125.026Z" fill="#B98D58"/>
<path d="M158.848 123.801C160.969 122.271 163.136 118.552 161.253 115.981C161.079 115.77 160.864 115.597 160.623 115.473C160.381 115.349 160.117 115.277 159.847 115.261C159.577 115.245 159.307 115.286 159.053 115.381C158.799 115.476 158.566 115.623 158.37 115.813C157.742 116.486 157.981 117.343 157.458 118.139C156.666 119.21 155.097 119.425 153.887 119.777C153.513 119.884 153.678 120.496 154.036 120.373C155.531 119.807 157.578 119.593 158.34 117.956C158.728 117.129 159.296 116.425 160.342 117.053C161.388 117.68 161.074 119.18 160.895 120.113C160.578 121.53 159.836 122.809 158.773 123.771C158.773 123.771 158.773 123.893 158.848 123.847V123.801Z" fill="#B98D58"/>
<path d="M180.827 110.518C178.989 110.641 178.287 112.048 177.361 113.579C176.921 114.26 176.349 114.841 175.681 115.285C175.012 115.73 174.262 116.03 173.476 116.165C172.25 116.41 171.294 116.165 170.174 116.869C169.053 117.573 169.322 120.067 170.98 119.93C172.938 119.761 174.656 118.078 176.076 116.762C176.749 116.136 177.337 115.421 177.824 114.635C178.691 113.242 179.004 111.406 180.902 111.115C181.201 111.115 181.126 110.564 180.827 110.579V110.518Z" fill="#B98D58"/>
<path d="M136.121 108.207C140.699 104.672 146.216 102.639 151.944 102.377C152.407 102.377 152.407 101.612 151.944 101.642C146.074 101.948 140.454 104.174 135.911 107.993C135.762 108.116 135.911 108.376 136.121 108.269V108.207Z" fill="#B98D58"/>
<path d="M141.455 107.044C142.337 106.566 143.263 106.176 144.219 105.881C145.071 105.637 145.953 105.56 146.804 105.315C146.852 105.315 146.897 105.296 146.931 105.261C146.965 105.227 146.984 105.18 146.984 105.132C146.984 105.083 146.965 105.036 146.931 105.002C146.897 104.967 146.852 104.948 146.804 104.948C144.862 105.058 142.98 105.674 141.335 106.738C141.296 106.761 141.266 106.798 141.254 106.843C141.241 106.887 141.246 106.935 141.268 106.976C141.29 107.016 141.327 107.046 141.37 107.059C141.413 107.072 141.46 107.067 141.5 107.044H141.455Z" fill="#B98D58"/>
<path d="M142.292 108.713C143.111 108.641 143.913 108.435 144.668 108.1C144.907 107.993 144.668 107.626 144.458 107.733C143.773 108.053 143.041 108.254 142.292 108.33C142.053 108.33 142.053 108.743 142.292 108.713Z" fill="#B98D58"/>
<path d="M178.213 130.764C180.555 130.259 182.843 129.516 185.041 128.545C185.084 128.509 185.114 128.46 185.127 128.405C185.14 128.35 185.135 128.292 185.113 128.24C185.091 128.189 185.053 128.145 185.005 128.118C184.957 128.09 184.902 128.079 184.847 128.086C182.591 128.744 180.364 129.831 178.168 130.58C178.144 130.58 178.121 130.59 178.104 130.607C178.087 130.624 178.078 130.648 178.078 130.672C178.078 130.697 178.087 130.72 178.104 130.737C178.121 130.754 178.144 130.764 178.168 130.764H178.213Z" fill="#B98D58"/>
<path d="M182.426 131.453L183.487 131.009C183.95 130.81 183.756 130.03 183.278 130.228L182.217 130.688C181.754 130.871 181.963 131.667 182.426 131.453Z" fill="#B98D58"/>
<path d="M184.638 132.585H184.951C185.355 132.662 185.519 132.034 185.116 131.958H184.802C184.399 131.881 184.234 132.509 184.638 132.585Z" fill="#B98D58"/>
<path d="M140.618 135.814C144.894 138.942 149.847 140.958 155.052 141.691C155.351 141.691 155.411 141.216 155.127 141.17C149.996 140.4 145.094 138.482 140.768 135.554C140.603 135.447 140.469 135.707 140.618 135.814Z" fill="#B98D58"/>
<path d="M158.549 140.788C158.611 140.773 158.667 140.737 158.707 140.685C158.746 140.634 158.768 140.57 158.768 140.505C158.768 140.439 158.746 140.375 158.707 140.324C158.667 140.272 158.611 140.236 158.549 140.221C158.507 140.211 158.464 140.211 158.422 140.221C158.38 140.23 158.341 140.249 158.308 140.277C158.274 140.304 158.247 140.339 158.228 140.378C158.21 140.417 158.2 140.461 158.2 140.505C158.2 140.548 158.21 140.592 158.228 140.631C158.247 140.67 158.274 140.705 158.308 140.732C158.341 140.76 158.38 140.779 158.422 140.788C158.464 140.798 158.507 140.798 158.549 140.788Z" fill="#B98D58"/>
<path d="M175.597 104.902L177.226 105.177C177.274 105.192 177.324 105.196 177.373 105.189C177.423 105.182 177.47 105.164 177.512 105.137C177.554 105.109 177.589 105.072 177.616 105.029C177.643 104.986 177.66 104.938 177.667 104.887C177.673 104.837 177.669 104.785 177.654 104.736C177.639 104.688 177.615 104.643 177.581 104.605C177.548 104.567 177.507 104.537 177.461 104.517C177.415 104.497 177.366 104.487 177.316 104.489L175.672 104.366C175.61 104.369 175.55 104.395 175.504 104.438C175.458 104.481 175.428 104.539 175.419 104.603C175.41 104.666 175.423 104.731 175.455 104.785C175.488 104.84 175.538 104.881 175.597 104.902Z" fill="#B98D58"/>
<path d="M178.377 107.427C178.843 107.496 179.316 107.496 179.781 107.427C180.035 107.427 179.976 107.029 179.781 106.953C179.324 106.823 178.851 106.761 178.377 106.769C177.973 106.769 177.988 107.335 178.377 107.381V107.427Z" fill="#B98D58"/>
<path d="M163.435 110.901C162.149 112.442 160.482 113.6 158.608 114.252C156.935 114.757 155.127 114.757 153.513 115.415C153.065 115.599 153.05 116.41 153.633 116.349C155.561 116.212 157.442 115.681 159.167 114.787C160.892 113.894 162.424 112.655 163.674 111.146C163.808 110.977 163.584 110.748 163.435 110.901Z" fill="#B98D58"/>
<path d="M164.51 109.217L164.077 109.799C163.973 109.937 164.197 110.059 164.301 109.921L164.735 109.34C164.839 109.202 164.615 109.08 164.51 109.217Z" fill="#B98D58"/>
<path d="M194.051 135.677C183.726 142.961 171.025 149.449 158.19 148.699C145.355 147.95 128.739 142.915 123.973 128.974C123.925 128.829 123.824 128.709 123.693 128.638C123.561 128.567 123.407 128.55 123.264 128.591C123.12 128.632 122.998 128.728 122.921 128.859C122.844 128.99 122.82 129.146 122.852 129.295C126.199 142.242 141.276 147.812 152.736 149.541C166.588 151.638 184.249 146.48 194.26 136.074C194.44 135.875 194.186 135.508 193.961 135.677H194.051Z" fill="#B98D58"/>
<path d="M129.606 121.536C140.282 119.702 151.145 119.285 161.926 120.297C166.408 120.725 171.115 122.24 175.717 122.103C180.812 121.934 185.176 118.384 190.405 119.164C191.033 119.256 191.317 118.262 190.674 118.17C187.028 117.634 184.847 118.721 181.35 119.853C174.761 121.996 168.545 119.853 161.926 119.333C151.09 118.296 140.165 118.899 129.501 121.123C129.232 121.123 129.352 121.582 129.606 121.536Z" fill="#B98D58"/>
<path d="M2.79236 61.5486C4.16704 50.6988 20.3942 56.8047 26.7894 55.7793C33.1846 54.754 37.7868 51.5863 44.4509 51.5404C50.5324 51.5404 55.7621 51.9842 61.5597 49.9183C64.8918 48.7247 78.773 42.2668 77.5776 52.0761C77.473 52.9636 78.8626 52.9636 78.9522 52.0761C79.535 46.7659 77.1144 45.358 72.2881 45.4498C69.8738 45.5481 67.487 46.0123 65.2055 46.8271C60.5884 48.3574 56.9724 50.1938 51.9668 50.3774C49.4715 50.4692 46.9612 50.1479 44.4958 50.1479C40.7352 49.9797 36.9788 50.5672 33.4386 51.8771C26.1319 54.6929 21.0068 53.8818 13.6105 53.7288C8.32097 53.6216 2.38896 55.2591 1.89587 61.5027C1.89587 62.0536 2.67286 62.023 2.73263 61.5027L2.79236 61.5486Z" fill="#B98D58"/>
<path d="M2.61295 59.5286C-5.62015 77.4485 32.4971 80.1571 41.9256 79.2695C52.5943 78.2748 61.9779 72.1689 70.3156 65.7111C75.8591 61.4262 81.1785 55.3968 78.2498 47.8678C77.951 47.1026 76.7556 47.3933 77.0097 48.2197C81.3728 62.5127 55.2988 75.4591 44.5853 77.3873C35.7396 78.9941 -4.111 76.6374 3.12097 59.85C3.27039 59.4674 2.74744 59.1461 2.58308 59.5286H2.61295Z" fill="#B98D58"/>
<path d="M6.31884 56.009C2.6132 58.6259 5.18321 62.1302 8.06704 64.2879C16.1208 70.4091 27.1929 72.674 37.0248 72.2302C46.8007 71.6333 56.3108 68.7375 64.8171 63.7676C69.5239 61.1202 80.1477 55.7183 78.4294 48.633C78.2949 48.0209 77.3685 48.281 77.5179 48.8931C79.2213 55.9019 66.1321 62.222 61.0816 64.6858C55.3368 67.5473 49.2081 69.5175 42.8971 70.5316C36.5677 71.5403 30.1117 71.3588 23.8459 69.996C20.5885 69.2767 0.252337 62.7883 6.49813 56.3457C6.6625 56.1774 6.49811 55.8713 6.2441 56.009H6.31884Z" fill="#B98D58"/>
<path d="M76.457 46.9956C74.0812 39.2523 70.9433 33.2994 63.2182 30.3153C54.1484 26.8109 42.2993 27.2547 32.9157 28.4178C23.8458 29.5808 -5.2315 41.1498 5.19809 54.7542C5.91531 55.6877 7.17045 54.3869 6.46818 53.4688C0.252263 45.3735 13.6403 37.6608 19.3632 34.5695C26.5204 30.6979 34.0363 29.7797 42.0304 29.6879C47.9026 29.6879 53.9841 29.4889 59.7965 30.8203C68.7618 32.9015 72.9605 38.732 76.0535 47.1027C76.1432 47.3629 76.5317 47.2557 76.457 46.9956Z" fill="#B98D58"/>
<path d="M75.0673 46.1079C71.033 43.736 67.0584 43.338 62.4413 43.4452C54.5967 43.6288 46.6624 44.2103 38.8327 44.9755C34.0031 45.3584 29.268 46.5527 24.8171 48.5105C18.7356 51.2344 12.2059 51.1579 6.25898 54.4787C5.46704 54.9224 6.16934 56.1773 6.97621 55.7335C12.2209 52.7953 17.4357 53.132 22.8447 51.1426C28.2538 49.1532 32.6616 47.1179 38.8327 46.5517C44.4808 46.0161 50.1589 45.7712 55.8219 45.2815C62.247 44.7306 68.717 43.7512 74.7835 46.6435C75.1122 46.8118 75.411 46.3221 75.0673 46.1385V46.1079Z" fill="#B98D58"/>
<path d="M8.73927 39.8797C2.52336 44.5624 -2.94547 52.4588 1.80611 60.248C2.2992 61.059 3.56932 60.248 3.06129 59.4982C-1.42134 52.2904 3.55438 44.945 9.03813 40.3388C9.29214 40.1245 8.9634 39.6655 8.69444 39.8797H8.73927Z" fill="#B98D58"/>
<path d="M40.5361 45.7559C43.3351 45.0205 45.8703 43.4807 47.8428 41.3181C47.8615 41.291 47.871 41.2584 47.87 41.2252C47.869 41.1921 47.8576 41.1602 47.8374 41.1343C47.8171 41.1084 47.7892 41.09 47.7579 41.0817C47.7265 41.0735 47.6934 41.0759 47.6635 41.0885C45.2279 42.6188 43.3004 44.6541 40.4913 45.5876C40.4753 45.5948 40.4617 45.6065 40.4521 45.6215C40.4426 45.6364 40.4375 45.6539 40.4375 45.6718C40.4375 45.6897 40.4426 45.7071 40.4521 45.7221C40.4617 45.737 40.4753 45.7488 40.4913 45.7559H40.5361Z" fill="#B98D58"/>
<path d="M49.6508 39.6348L50.099 39.2063C50.1108 39.1982 50.1205 39.1873 50.1274 39.1747C50.1342 39.162 50.1381 39.1478 50.1385 39.1333C50.139 39.1188 50.1362 39.1044 50.1302 39.0912C50.1241 39.0781 50.1152 39.0666 50.104 39.0577C50.0928 39.0488 50.0797 39.0427 50.0658 39.04C50.0519 39.0372 50.0375 39.0379 50.0239 39.042C50.0103 39.046 49.9978 39.0533 49.9875 39.0633C49.9772 39.0732 49.9693 39.0855 49.9645 39.0992L49.6208 39.6042L49.6508 39.6348Z" fill="#B98D58"/>
<path d="M27.0583 54.9378C30.1391 54.2191 33.3647 54.5467 36.2477 55.8713C37.6087 56.2849 38.9254 56.8387 40.1775 57.524C41.1759 58.6314 41.9662 59.918 42.5084 61.3192C42.613 61.5181 42.8969 61.3192 42.8521 61.1662C41.9854 57.4781 41.0291 56.7436 37.6223 55.4275C34.2728 53.8753 30.4986 53.5721 26.9537 54.5706C26.7146 54.5706 26.8192 54.9837 27.0583 54.9378Z" fill="#B98D58"/>
<path d="M66.5054 51.2343C64.4965 49.946 62.247 49.1016 59.901 48.7552C58.8849 48.5716 58.8252 50.1937 59.7217 50.0866C62.02 49.88 64.327 50.3696 66.356 51.4945C66.3726 51.5088 66.3921 51.5192 66.4131 51.525C66.434 51.5308 66.456 51.5319 66.4774 51.5281C66.4988 51.5243 66.5191 51.5158 66.537 51.5032C66.5549 51.4905 66.5698 51.4741 66.5808 51.4549C66.5918 51.4357 66.5986 51.4143 66.6008 51.3922C66.6029 51.37 66.6002 51.3477 66.593 51.3267C66.5859 51.3057 66.5743 51.2865 66.5592 51.2706C66.544 51.2546 66.5257 51.2423 66.5054 51.2343Z" fill="#B98D58"/>
<path d="M19.7815 40.002C21.9866 38.8229 24.2682 37.8003 26.6101 36.9414C26.9388 36.819 26.7894 36.2835 26.4607 36.4059C24.1255 37.3823 21.8589 38.5225 19.677 39.8184C19.6567 39.8343 19.6428 39.8572 19.6379 39.8828C19.6329 39.9084 19.6372 39.935 19.6501 39.9575C19.6629 39.9801 19.6834 39.9971 19.7076 40.0053C19.7318 40.0135 19.7581 40.0123 19.7815 40.002Z" fill="#B98D58"/>
<path d="M23.4273 40.0326C24.4927 39.5344 25.6184 39.1844 26.7744 38.9919C27.0135 38.9919 26.9686 38.5023 26.6997 38.5329C25.4861 38.6927 24.3197 39.1152 23.2779 39.7724C23.1136 39.8642 23.2779 40.1091 23.4273 40.0326Z" fill="#B98D58"/>
<path d="M25.803 42.1904L27.7006 41.4099C27.735 41.3948 27.766 41.373 27.7921 41.3456C27.8182 41.3182 27.8388 41.2858 27.8527 41.2503C27.8666 41.2148 27.8735 41.1768 27.873 41.1385C27.8726 41.1002 27.8648 41.0625 27.85 41.0273C27.8353 40.9921 27.814 40.9603 27.7873 40.9335C27.7605 40.9068 27.7289 40.8858 27.6942 40.8716C27.6595 40.8573 27.6224 40.8503 27.5851 40.8507C27.5477 40.8512 27.5108 40.8592 27.4765 40.8743L25.6386 41.7619C25.3995 41.869 25.6386 42.2822 25.803 42.1904Z" fill="#B98D58"/>
<path d="M58.7506 58.0902L61.231 57.7688C61.285 57.7709 61.3388 57.7609 61.3887 57.7396C61.4387 57.7183 61.4834 57.6862 61.52 57.6454C61.5566 57.6046 61.5841 57.5562 61.6006 57.5035C61.6172 57.4507 61.6224 57.395 61.6158 57.34C61.6092 57.285 61.5911 57.2322 61.5626 57.1851C61.5342 57.138 61.496 57.0978 61.4509 57.0673C61.4058 57.0368 61.3547 57.0166 61.3013 57.0083C61.2478 56.9999 61.1933 57.0036 61.1413 57.0189L58.6759 57.5852C58.4219 57.5852 58.4667 58.1361 58.7506 58.0902Z" fill="#B98D58"/>
<path d="M59.931 59.2226L61.1114 59.1155C61.231 59.1155 61.231 58.9013 61.1114 58.9166L59.931 59.0543C59.9174 59.0482 59.9025 59.0457 59.8876 59.0469C59.8728 59.0482 59.8585 59.0533 59.8461 59.0616C59.8336 59.07 59.8234 59.0814 59.8163 59.0948C59.8092 59.1082 59.8055 59.1232 59.8055 59.1384C59.8055 59.1537 59.8092 59.1687 59.8163 59.1821C59.8234 59.1955 59.8336 59.2069 59.8461 59.2153C59.8585 59.2236 59.8728 59.2286 59.8876 59.2299C59.9025 59.2312 59.9174 59.2287 59.931 59.2226Z" fill="#B98D58"/>
<path d="M4.46586 58.2739C1.47744 64.946 9.03816 68.8789 13.8645 71.0825C21.5596 74.6022 29.9571 77.0966 38.4591 76.714C46.9612 76.3315 54.2829 72.5516 61.47 68.328C67.8802 64.5634 73.9915 60.4316 77.6971 53.683C77.6988 53.6646 77.695 53.6461 77.6862 53.6299C77.6774 53.6138 77.6641 53.6007 77.6479 53.5924C77.6318 53.5842 77.6136 53.5811 77.5957 53.5836C77.5778 53.5861 77.5611 53.5941 77.5477 53.6065C74.365 59.8501 68.5825 63.7983 62.7849 67.1956C56.9874 70.5928 50.8312 74.1431 44.1222 75.551C36.9321 76.8762 29.5331 76.3503 22.5906 74.0207C16.6138 72.1537 1.08896 67.5016 4.66012 58.4116C4.66012 58.2892 4.51069 58.2127 4.46586 58.3198V58.2739Z" fill="#B98D58"/>
<path d="M6.90125 62.926C11.5386 66.9967 16.9721 70.0051 22.8374 71.7497C28.7027 73.4942 34.8644 73.9346 40.9095 73.0412C47.8009 71.8113 54.4935 69.6124 60.7974 66.5069C66.8938 63.7217 73.6775 61.0437 77.9808 55.5806C78.1004 55.4428 77.9808 55.2592 77.8015 55.3816C73.797 60.248 67.9846 62.727 62.456 65.3132C56.3929 68.3298 50.0103 70.62 43.4347 72.1384C37.0758 73.4334 30.5156 73.2679 24.2266 71.6538C17.9377 70.0396 12.0766 67.017 7.06563 62.8036C7.05778 62.7965 7.04865 62.7911 7.03877 62.7877C7.02889 62.7843 7.01845 62.7829 7.00804 62.7836C6.99763 62.7843 6.98747 62.7871 6.97813 62.7919C6.96878 62.7966 6.96042 62.8032 6.95355 62.8112C6.94668 62.8192 6.94143 62.8286 6.93809 62.8387C6.93475 62.8488 6.93338 62.8595 6.93408 62.8702C6.93477 62.8808 6.93752 62.8912 6.94215 62.9008C6.94677 62.9104 6.95318 62.9189 6.96103 62.926H6.90125Z" fill="#B98D58"/>
<path d="M5.2876 57.0802C1.7762 59.9725 2.74741 65.0837 5.21286 68.2514C8.73919 72.8423 13.4759 76.1171 19.3033 76.0253C19.6768 76.0253 19.6768 75.4132 19.3033 75.4285C17.1478 75.4298 15.0147 74.9813 13.034 74.1104C11.0533 73.2396 9.26658 71.9645 7.7829 70.3632C4.45081 67.0424 1.19344 61.3038 5.45194 57.2332C5.55653 57.1414 5.45196 56.9884 5.2876 57.0802Z" fill="#B98D58"/>
<path d="M3.04616 48.0667C2.472 49.5822 2.41492 51.252 2.88419 52.8049C3.35345 54.3578 4.32151 55.7026 5.63116 56.6211C5.93 56.7894 6.25872 56.3762 6.00471 56.1467C4.82688 55.2413 3.94299 53.9932 3.4685 52.5654C2.99402 51.1376 2.95095 49.5964 3.34497 48.1432C3.34497 47.9443 3.12087 47.8831 3.04616 48.0667Z" fill="#B98D58"/>
<path d="M2.37376 48.8165C1.74733 50.355 1.58193 52.0495 1.89856 53.6846C2.2152 55.3196 2.99955 56.8212 4.15187 57.9983C4.40589 58.2738 4.80935 57.8606 4.55534 57.6004C3.45172 56.4753 2.67779 55.0562 2.32127 53.5037C1.96476 51.9512 2.0399 50.3275 2.53814 48.8165C2.53814 48.7094 2.41858 48.6788 2.37376 48.8165Z" fill="#B98D58"/>
<path d="M14.0136 53.4074C17.0645 53.9594 20.2026 53.7013 23.1283 52.6576C26.819 51.0202 30.1959 48.9084 34.036 47.5158C34.3199 47.4087 34.2004 46.9343 33.9165 47.0414C31.0799 47.9921 28.33 49.1955 25.6984 50.6376C22.1611 52.7256 18.079 53.6398 14.0136 53.2544C13.909 53.2544 13.924 53.3921 14.0136 53.4074Z" fill="#B98D58"/>
<path d="M20.2598 53.4075C22.9493 53.7916 25.6893 53.3328 28.1193 52.0914C32.841 49.9337 36.6961 47.424 42.0603 47.2863C46.8418 47.1639 51.5784 47.5617 56.3599 47.2863C61.1414 47.0108 65.9079 46.414 70.6445 45.6795C70.8687 45.6795 70.8089 45.251 70.6445 45.2816C65.9079 45.7866 61.1862 46.5058 56.4197 46.8119C51.6531 47.118 46.9165 46.8119 42.1201 46.919C39.0019 46.9901 35.9388 47.7744 33.1548 49.2145C29.0607 51.2498 25.1757 53.9584 20.4092 53.3003C20.4092 53.3003 20.3345 53.4075 20.4092 53.4228L20.2598 53.4075Z" fill="#B98D58"/>
<path d="M71.6155 45.0673C68.119 44.6389 65.2352 45.8631 61.9927 47.0261C57.496 48.427 52.7814 48.9462 48.0966 48.5564C41.8359 48.3728 35.351 48.5565 30.435 52.9943C30.196 53.2086 30.5546 53.5758 30.7937 53.3616C36.7705 47.8831 44.8392 49.1686 52.2206 49.1074C55.164 49.1488 58.0965 48.7308 60.917 47.8678C64.5329 46.6895 67.7006 44.9296 71.6155 45.2816C71.7649 45.2816 71.7649 45.0674 71.6155 45.0521V45.0673Z" fill="#B98D58"/>
<path d="M47.0805 44.2258C53.6401 47.2864 60.3043 45.7561 67.1926 44.9144C67.4914 44.9144 67.4914 44.4095 67.1926 44.4401C60.3939 45.3429 53.7447 46.9038 47.1403 44.0728C47.0507 44.0728 46.9909 44.1952 47.1403 44.2258H47.0805Z" fill="#B98D58"/>
<path d="M11.563 53.6369C19.8858 54.5398 26.3109 52.581 34.3497 51.0201C43.7632 49.1685 53.4458 49.1226 62.9191 47.73C65.7282 47.3015 69.8821 45.9854 64.4133 46.368C58.9445 46.7506 53.7745 48.2197 48.1861 48.2809C40.6404 48.2809 33.7819 50.4233 26.4304 52.2902C26.1673 52.3692 25.9449 52.5509 25.8112 52.7961C25.6776 53.0413 25.6433 53.3306 25.7157 53.6014C25.7882 53.8723 25.9617 54.1031 26.1988 54.2443C26.4359 54.3855 26.7176 54.4257 26.9833 54.3562C34.6336 52.2903 41.6564 50.0867 49.6056 50.1785C56.5388 50.1785 63.3225 47.8065 70.1062 46.5516C70.2417 46.499 70.3558 46.4011 70.4301 46.2737C70.5044 46.1463 70.5345 45.9969 70.5155 45.8498C70.4964 45.7027 70.4294 45.5666 70.3253 45.4634C70.2211 45.3602 70.086 45.2961 69.9418 45.2815C60.5432 45.9089 51.1596 46.4904 41.8208 47.7453C31.3613 49.1531 22.2167 53.0248 11.563 53.3003C11.5194 53.3003 11.4777 53.318 11.4468 53.3496C11.416 53.3811 11.3987 53.424 11.3987 53.4686C11.3987 53.5133 11.416 53.556 11.4468 53.5876C11.4777 53.6192 11.5194 53.6369 11.563 53.6369Z" fill="#B98D58"/>
<path d="M2.61309 53.3003C2.21749 53.9853 1.96187 54.7454 1.8617 55.5345C1.76153 56.3237 1.81892 57.1254 2.03037 57.8912C2.05633 57.9828 2.10228 58.067 2.1648 58.1377C2.22732 58.2083 2.30474 58.2634 2.39116 58.2988C2.47758 58.3342 2.57074 58.349 2.66357 58.342C2.7564 58.335 2.84642 58.3065 2.92686 58.2585C4.17951 57.5401 5.21377 56.4808 5.91528 55.1979C5.99212 55.0426 6.01377 54.8647 5.97652 54.6948C5.93927 54.5249 5.84544 54.3735 5.71113 54.2667C5.57682 54.16 5.41041 54.1044 5.24045 54.1095C5.07049 54.1147 4.90761 54.1802 4.77971 54.295C3.62132 55.2546 2.6483 56.4276 1.91081 57.7535C1.50737 58.488 2.53841 59.3909 3.1062 58.687C3.84729 57.759 4.52143 56.777 5.12335 55.7488C5.51185 55.0602 6.22907 53.989 5.69116 53.1779C4.34637 51.0967 2.16482 55.5345 1.71655 56.4068L3.21076 57.0649C3.55443 55.9937 3.89814 54.9071 4.22686 53.8206C4.55559 52.7341 3.43493 52.474 2.8223 52.979C2.15989 53.4464 1.57044 54.014 1.07406 54.6623C1.00944 54.7876 0.981617 54.9295 0.993937 55.0707C1.00626 55.2118 1.05821 55.3463 1.1435 55.4579C1.2288 55.5696 1.3438 55.6535 1.47465 55.6997C1.6055 55.7459 1.74661 55.7523 1.88094 55.7182C2.66287 55.3264 3.37903 54.8099 4.00269 54.1879L2.61309 53.3462C2.25448 54.4327 1.92576 55.5193 1.59704 56.6058C1.56557 56.7952 1.59721 56.99 1.68687 57.1589C1.77653 57.3277 1.91898 57.4608 2.09138 57.5368C2.26379 57.6127 2.45611 57.627 2.63744 57.5775C2.81877 57.528 2.97862 57.4175 3.09125 57.2638C3.39009 56.667 3.70385 56.0855 4.04752 55.5346C4.24541 55.2777 4.4252 55.0066 4.58546 54.7235C4.86936 54.5092 4.83948 54.3256 4.49581 54.1879C4.15214 54.0502 4.1372 53.8206 4.07743 54.1879C3.70265 54.7163 3.38689 55.2861 3.13607 55.8865C2.77746 56.4527 2.38897 57.0189 1.97059 57.5545L3.16594 58.5033C3.81381 57.2779 4.68644 56.1919 5.73598 55.305L4.60041 54.4174C4.01903 55.4888 3.2064 56.41 2.22458 57.1108L3.1062 57.478C2.87103 56.8714 2.75899 56.2219 2.77698 55.5694C2.79496 54.9169 2.94255 54.275 3.21076 53.6829C3.40501 53.2085 2.77746 52.8106 2.52344 53.2697L2.61309 53.3003Z" fill="#B98D58"/>
<path d="M4.13712 59.1307C3.08541 61.2109 2.72847 63.5869 3.12102 65.8946C3.1272 66.0371 3.17292 66.1748 3.2528 66.2915C3.33268 66.4083 3.44344 66.4993 3.57204 66.554C3.70065 66.6086 3.8418 66.6245 3.97893 66.5999C4.11606 66.5752 4.24349 66.5111 4.34628 66.4149C5.84049 65.1295 5.75082 65.3131 5.96001 63.2472C6.0646 62.2525 4.67499 62.2219 4.37615 63.0177C3.83048 64.1371 3.6812 65.4158 3.95371 66.6354C4.22623 67.8551 4.90364 68.9401 5.87036 69.7051C6.02071 69.8501 6.21287 69.9414 6.4181 69.9653C6.62333 69.9892 6.83064 69.9444 7.00894 69.8376C7.18723 69.7307 7.32693 69.5677 7.4072 69.3728C7.48748 69.1779 7.50397 68.9616 7.45422 68.7563C6.93953 66.7593 6.17091 64.8402 5.16808 63.0482C4.70487 62.176 3.15093 62.5127 3.24058 63.5839C4.55549 77.5861 26.625 79.4531 37.1293 78.795C51.4788 77.7454 64.8343 70.9037 74.2604 59.7734C74.6339 59.3449 74.0213 58.7022 73.6478 59.1307C65.9003 67.9054 55.3525 73.5644 43.898 75.0917C34.35 76.469 7.1853 76.9434 5.25777 63.2931L3.37505 64.1195C4.40618 65.6937 5.16441 67.4383 5.61637 69.2766L7.20023 68.3278C6.76691 66.7057 6.33358 65.0836 5.88532 63.4615L4.30146 63.2472C4.39111 61.9311 4.46584 60.6304 4.55549 59.3296C4.55549 59.0542 4.22672 58.8552 4.09225 59.1307H4.13712Z" fill="#B98D58"/>
<path d="M4.77932 59.9725C5.75055 68.083 14.2526 71.9547 20.9765 74.2655C31.4875 77.8878 42.8539 77.9736 53.4158 74.5103C53.6037 74.4293 53.7563 74.2809 53.8449 74.0928C53.9335 73.9048 53.952 73.6901 53.8969 73.4891C53.8419 73.2881 53.7171 73.1145 53.546 73.0011C53.3748 72.8876 53.1692 72.842 52.9676 72.8729C38.3692 76.163 13.0274 76.0406 5.15287 59.8653C5.04827 59.6664 4.68965 59.7429 4.71954 59.9725H4.77932Z" fill="#B98D58"/>
<path d="M77.4581 48.6942C78.1455 48.3881 78.8478 48.1126 79.5351 47.8525C82.4443 47.034 85.295 46.0113 88.067 44.7919C91.2796 43.0626 93.1623 40.354 95.7174 37.9055C98.3647 35.5451 101.4 33.685 104.683 32.4117C109.927 30.1316 114.783 28.3565 118.967 24.2859C122.03 21.3018 124.197 18.5319 128.097 16.6344C132.49 14.5378 135.09 15.2418 136.644 20.1234C136.928 20.9957 135.583 21.363 135.329 20.506C134.806 18.8074 128.904 17.9963 127.499 18.4707C125.814 19.2788 124.293 20.4054 123.017 21.7915C120.85 23.8574 119.176 26.3824 116.741 28.1116C112.467 31.2793 107.193 32.5342 102.516 34.9061C97.376 37.5077 94.5968 42.5577 89.7705 45.3428C86.9763 46.9802 81.9707 48.0667 77.8168 49.9337C77.7394 49.5089 77.6192 49.0935 77.4581 48.6942Z" fill="#B98D58"/>
<path d="M114.036 59.8959C113.887 59.8194 113.767 59.7276 113.603 59.6511C113.184 59.4521 112.766 59.2991 112.348 59.1308C113.48 58.5769 114.574 57.9428 115.62 57.2332C124.585 50.8978 143.084 28.2646 133.416 17.3536C133.295 17.2298 133.227 17.0619 133.227 16.8869C133.227 16.7118 133.295 16.5439 133.416 16.4201C133.537 16.2963 133.701 16.2268 133.872 16.2268C134.043 16.2268 134.207 16.2963 134.327 16.4201C140.125 21.8527 137.495 29.948 134.178 36.008C129.232 45.0979 123.255 54.3715 114.305 59.7582L114.036 59.8959Z" fill="#B98D58"/>
<path d="M103.248 57.1721C102.471 57.1721 101.649 57.0344 100.827 56.9885C104.391 55.6393 107.807 53.9108 111.018 51.8314C116.41 48.2755 121.246 43.9057 125.362 38.8697C128.769 34.7532 138.452 23.4749 134.118 17.7516C134.07 17.7028 134.031 17.6439 134.007 17.5787C133.982 17.5136 133.971 17.4438 133.975 17.374C133.978 17.3042 133.997 17.236 134.028 17.1741C134.06 17.1121 134.104 17.0578 134.158 17.0148C134.212 16.9718 134.274 16.9411 134.34 16.9248C134.407 16.9085 134.476 16.9069 134.543 16.9202C134.61 16.9334 134.673 16.9612 134.729 17.0017C134.785 17.0422 134.831 17.0944 134.865 17.1548C139.348 23.1536 131.145 32.9322 127.619 37.5231C121.685 45.5001 114.009 51.9416 105.205 56.3305C104.548 56.6365 103.891 56.8967 103.248 57.1721Z" fill="#B98D58"/>
<path d="M80.2074 61.059C79.7741 61.059 79.3408 61.0591 78.9075 60.9366C77.8999 60.7961 76.9019 60.5916 75.9191 60.3245V59.9266C75.9262 59.8043 75.9262 59.6816 75.9191 59.5593C77.7525 59.9889 79.6267 60.2096 81.5074 60.2174L80.2074 61.059Z" fill="#B98D58"/>
<path d="M97.1068 11.1558C101.753 9.07281 106.646 7.62198 111.66 6.84033C120.79 5.61609 126.513 9.61017 132.325 16.4047C132.505 16.6036 132.221 16.9097 132.027 16.7107C125.542 9.94681 118.773 6.62609 109.613 8.7532C105.736 9.71696 101.959 11.0596 98.3321 12.7626C98.011 12.1627 97.5972 11.6201 97.1068 11.1558Z" fill="#B98D58"/>
<path d="M76.5614 47.0873C79.1661 45.3433 81.634 43.3939 83.9428 41.2569C87.9772 37.2016 90.9955 33.7125 95.9861 30.7438C102.501 26.8568 109.344 23.3677 116.113 20.0317C120.969 17.6138 125.198 15.7162 130.697 16.2212C131.055 16.2212 131.07 16.818 130.697 16.818C123.509 16.6956 117.622 20.705 111.541 24.0869C106.64 26.8109 101.604 29.3053 96.7631 32.1363C91.9219 34.9674 88.799 38.533 84.9738 42.3587C82.5697 44.5411 80.0017 46.5264 77.2936 48.2963C77.1107 47.8577 76.8638 47.4501 76.5614 47.0873Z" fill="#B98D58"/>
<path d="M98.8699 29.9787C101.081 27.9587 102.008 25.2959 103.651 22.8934C103.741 22.7709 103.98 22.8934 103.92 23.0158C102.967 25.8175 101.251 28.2813 98.9745 30.1164C98.8998 30.1164 98.7952 30.1164 98.8699 29.9787Z" fill="#B98D58"/>
<path d="M104.892 20.7815C104.892 20.5672 104.966 20.3683 105.011 20.1541C105.056 19.9398 105.205 20.1541 105.161 20.1541L104.921 20.7356L104.892 20.7815Z" fill="#B98D58"/>
<path d="M90.0244 43.8432C92.7268 41.5674 96.104 40.2993 99.6023 40.247C103.577 39.9715 104.772 40.0633 107.208 43.3076C107.312 43.4606 107.088 43.6749 106.954 43.5678C105.729 42.3807 104.243 41.5144 102.621 41.0428C101.414 40.9688 100.204 41.0098 99.0047 41.1652C95.8331 41.2045 92.7559 42.2764 90.2187 44.2258C90.0543 44.3482 89.8302 44.0574 89.9946 43.9197L90.0244 43.8432Z" fill="#B98D58"/>
<path d="M124.899 24.7144C122.619 24.5193 120.333 25.0141 118.324 26.1376C117.473 26.6426 116.83 25.1276 117.816 24.8827C120.136 24.2264 122.563 24.0701 124.944 24.4237C125.093 24.4237 125.063 24.7144 124.944 24.7144H124.899Z" fill="#B98D58"/>
<path d="M120.297 33.5137L122.329 31.9834C122.703 31.6926 123.121 32.3812 122.703 32.6414L120.536 33.9728C120.252 34.1411 120.043 33.7279 120.297 33.529V33.5137Z" fill="#B98D58"/>
<path d="M121.956 34.2787L122.987 33.6666C123.091 33.6666 123.196 33.789 123.091 33.8503L122.045 34.4318C121.956 34.4318 121.866 34.3399 121.956 34.2787Z" fill="#B98D58"/>
<path d="M110.047 58.3809C110.569 58.1055 111.092 57.83 111.615 57.524C117.921 53.6676 122.448 47.8219 126.812 41.8996C131.175 35.9774 135.433 29.6572 135.956 22.0057C135.963 21.9893 135.975 21.9754 135.989 21.9656C136.004 21.9558 136.021 21.9506 136.038 21.9506C136.056 21.9506 136.073 21.9558 136.087 21.9656C136.102 21.9754 136.114 21.9893 136.12 22.0057C135.299 30.3612 130.741 37.0944 125.93 43.6441C121.597 49.5664 116.965 54.9378 110.659 58.534L110.047 58.3809Z" fill="#B98D58"/>
<path d="M105.534 57.4322L104.653 57.3251C107.274 56.144 109.776 54.7038 112.124 53.0249C117.109 49.26 121.67 44.9383 125.721 40.1398C130.099 35.1969 135 30.1316 136.868 23.582C136.868 23.4136 137.167 23.4748 137.122 23.582C135.523 29.7032 131.235 34.2941 127.245 38.885C122.823 44.2679 117.809 49.1101 112.303 53.3157C110.172 54.8925 107.906 56.2702 105.534 57.4322Z" fill="#B98D58"/>
<path d="M80.2523 60.9671C78.7929 60.7206 77.3467 60.3988 75.9191 60.003V59.8193C77.4497 60.2237 79.0011 60.5404 80.5661 60.7681L80.2523 60.9671Z" fill="#B98D58"/>
<path d="M77.6373 47.9751C81.5067 46.6718 84.8782 44.1557 87.275 40.7826C89.114 38.3768 91.1538 36.1392 93.3713 34.0952C93.5955 33.881 93.9242 34.2177 93.7001 34.4319C90.7116 37.3242 88.4704 40.6602 85.7061 43.7055C83.4409 45.8527 80.6797 47.3745 77.6821 48.128C77.6623 48.128 77.6433 48.12 77.6293 48.1057C77.6153 48.0913 77.6074 48.0718 77.6074 48.0516C77.6074 48.0313 77.6153 48.0118 77.6293 47.9974C77.6433 47.9831 77.6623 47.9751 77.6821 47.9751H77.6373Z" fill="#B98D58"/>
<path d="M83.4048 45.3428C90.7713 43.2157 93.4011 34.1257 100.245 30.7744C104.563 28.6472 109.09 27.0557 113.349 24.7603C117.607 22.4648 121.926 19.6797 126.229 17.1088C126.274 17.0824 126.328 17.0757 126.379 17.09C126.429 17.1044 126.472 17.1386 126.498 17.1853C126.524 17.232 126.53 17.2872 126.516 17.3389C126.502 17.3905 126.469 17.4344 126.423 17.4608C122.075 20.3071 117.562 22.9699 112.975 25.3877C108.388 27.8056 103.681 29.1829 99.348 31.6007C93.0873 35.0745 90.6368 43.5371 83.4646 45.3734C83.3749 45.3734 83.345 45.2663 83.4646 45.251L83.4048 45.3428Z" fill="#B98D58"/>
<path d="M127.23 16.8792C123.674 18.0728 121.388 20.9191 118.713 23.4135C116.265 25.6088 113.478 27.3723 110.465 28.6318C103.861 31.6006 96.2851 33.8808 93.0576 41.165C92.9231 41.4711 92.5047 41.165 92.6243 40.9048C95.4782 34.4164 101.903 31.723 107.955 29.198C112.388 27.5054 116.451 24.931 119.909 21.6231C121.877 19.3743 124.363 17.6648 127.141 16.6496C127.159 16.6427 127.178 16.6405 127.197 16.6429C127.216 16.6454 127.235 16.6526 127.25 16.6639C127.266 16.6751 127.279 16.6902 127.288 16.7077C127.297 16.7252 127.302 16.7446 127.302 16.7644C127.302 16.7841 127.297 16.8036 127.288 16.8211C127.279 16.8386 127.266 16.8536 127.25 16.8649C127.235 16.8761 127.216 16.8833 127.197 16.8858C127.178 16.8883 127.159 16.886 127.141 16.8792H127.23Z" fill="#B98D58"/>
<path d="M104.384 25.8622C111.466 25.7397 117.01 21.5314 122.852 17.9199C122.904 17.8895 122.965 17.8812 123.022 17.897C123.08 17.9128 123.129 17.9513 123.158 18.004C123.188 18.0568 123.196 18.1195 123.181 18.1783C123.165 18.2372 123.128 18.2873 123.076 18.3178C117.099 21.9752 111.601 26.107 104.384 25.9693C104.368 25.9621 104.354 25.9504 104.345 25.9354C104.335 25.9205 104.33 25.903 104.33 25.8851C104.33 25.8673 104.335 25.8497 104.345 25.8348C104.354 25.8198 104.368 25.8081 104.384 25.8009V25.8622Z" fill="#B98D58"/>
<path d="M77.428 48.6482C77.3739 48.4538 77.3039 48.2643 77.2188 48.0819C84.7794 44.0572 90.5919 38.4717 97.6745 33.5747C106.505 27.4535 116.203 22.6024 125.646 17.5831C125.791 17.4978 125.963 17.4749 126.124 17.5194C126.285 17.5639 126.422 17.6721 126.505 17.8202C126.588 17.9684 126.611 18.1443 126.567 18.3093C126.524 18.4744 126.418 18.615 126.274 18.7002C120.999 22.3576 116.053 27.2086 110.226 29.9632C102.59 33.5747 96.6435 38.135 90.0541 43.5217C89.8907 43.6518 89.6953 43.733 89.4896 43.7563C89.2839 43.7796 89.0758 43.7442 88.8886 43.6538C88.7014 43.5635 88.5423 43.4218 88.4288 43.2445C88.3154 43.0672 88.2521 42.8612 88.246 42.6494C84.8943 45.0965 81.2609 47.1113 77.428 48.6482Z" fill="#B98D58"/>
<path d="M112.303 59.1154C111.779 58.8956 111.24 58.7166 110.689 58.5798C110.166 58.4115 109.643 58.289 109.195 58.1666C110.48 57.5086 111.601 56.8812 112.482 56.3609C122.95 50.2805 130.841 40.4375 134.627 28.739C134.791 28.1881 135.643 28.4329 135.478 28.9685C131.686 41.4688 123.761 52.226 113.065 59.3909L112.303 59.1154Z" fill="#B98D58"/>
<path d="M110.704 58.5646C109.663 58.2418 108.605 57.9762 107.536 57.7689C112.339 55.5821 116.906 52.8896 121.164 49.7348C121.926 49.1686 122.867 50.4234 122.165 51.0661C118.853 54.0989 115.165 56.6715 111.197 58.7176L110.704 58.5646Z" fill="#B98D58"/>
<path d="M55.0746 105.545C56.3746 102.882 57.6895 100.235 59.0044 97.5718L62.9043 95.8579C64.3985 95.3376 65.8927 95.0622 67.3869 94.6796C69.7047 94.2171 71.983 93.5672 74.2005 92.7361C80.6555 89.9969 84.4508 84.3807 91.3541 82.024C96.0758 80.3866 101.007 79.2848 105.101 76.2242C107.94 74.1124 120.431 60.9212 122.613 71.3578C122.792 72.2454 124.107 71.8781 123.943 70.9905C122.777 65.7722 120.147 65.1907 115.545 66.9199C112.631 68.177 109.951 69.9426 107.626 72.1382C102.366 76.5761 97.3309 78.5349 90.9954 80.6773C87.6477 81.656 84.503 83.2534 81.7164 85.3906C78.2797 88.2064 75.9637 90.8385 71.5408 92.3076C69.3294 93.0422 67.0582 93.3788 64.787 94.0062C59.1538 95.5365 52.6839 98.8114 54.2528 105.82C54.3723 106.356 55.1493 106.126 55.0597 105.591L55.0746 105.545Z" fill="#B98D58"/>
<path d="M54.2381 103.724C52.206 123.541 89.875 112.982 98.6161 108.636C107.955 104.045 114.619 95.2306 120.267 86.5844C124.048 80.7846 127.215 72.9648 121.881 67.0731C121.388 66.5375 120.387 67.2721 120.865 67.8689C129.621 79.4992 110.181 99.8675 101.052 105.652C92.968 110.763 53.4013 122.485 54.8507 103.724C54.8507 103.311 54.268 103.326 54.2381 103.724Z" fill="#B98D58"/>
<path d="M56.5839 99.1329C53.1322 103.969 59.8413 106.172 63.4274 106.922C72.9951 108.793 82.8916 107.657 91.8174 103.663C100.824 99.6071 108.81 93.5052 115.172 85.8193C118.773 81.5804 126.124 73.6994 122.404 67.8536C122.075 67.3333 121.238 67.8536 121.582 68.3433C127.559 77.8006 104.249 95.6286 98.0034 99.3166C92.9078 102.375 87.3545 104.552 81.5671 105.759C78.2499 106.432 52.684 108.636 57.0172 99.3472C57.0352 99.323 57.048 99.2953 57.0547 99.2657C57.0614 99.2361 57.0619 99.2054 57.0561 99.1756C57.0504 99.1458 57.0385 99.1176 57.0213 99.0929C57.0041 99.0681 56.9819 99.0474 56.9563 99.0321C56.9307 99.0168 56.9022 99.0073 56.8727 99.0041C56.8432 99.0009 56.8134 99.0042 56.7853 99.0138C56.7571 99.0233 56.7312 99.0388 56.7094 99.0594C56.6876 99.0799 56.6703 99.105 56.6586 99.1329H56.5839Z" fill="#B98D58"/>
<path d="M119.953 66.9659C115.022 60.1713 109.897 55.6111 101.261 55.657C92.0564 55.657 82.09 59.697 73.8868 63.5992C65.6836 67.5015 40.5211 88.6961 55.0896 98.2605C56.0609 98.9032 56.9574 97.3117 56.0011 96.7302C46.9313 90.7926 59.2436 77.2189 63.6066 72.8422C69.1053 67.3332 75.9339 64.4103 83.0314 61.8241C88.8289 59.7123 94.985 57.2332 101.231 57.1414C109.374 56.8965 114.679 61.2119 119.595 67.2719C119.744 67.4556 120.058 67.272 119.923 67.0118L119.953 66.9659Z" fill="#B98D58"/>
<path d="M118.384 66.5833C107.297 64.6398 94.5965 72.7045 84.7347 77.2954C79.7412 79.622 75.1254 82.7186 71.0478 86.4772C66.2364 90.7467 60.4538 92.7667 56.1057 97.679C55.4931 98.3676 56.4792 99.393 57.0918 98.7043C60.9319 94.3736 64.9663 93.3329 69.2995 90.1193C73.6327 86.9057 77.0993 82.7892 82.2244 80.2183C87.3496 77.6474 92.2954 75.7498 97.301 73.5003C104.04 70.4397 110.749 66.4762 118.295 67.226C118.623 67.226 118.698 66.6904 118.384 66.6445V66.5833Z" fill="#B98D58"/>
<path d="M53.6851 83.0954C49.3668 89.5838 46.722 98.8728 53.6851 104.52C54.4172 105.116 55.4482 104.06 54.7161 103.464C48.1565 98.1688 50.4427 89.5838 54.1931 83.3249C54.4023 83.0035 53.9092 82.7128 53.7 83.0341L53.6851 83.0954Z" fill="#B98D58"/>
<path d="M85.6164 77.8922C88.0275 76.266 89.927 73.9592 91.0851 71.2507C91.0851 71.0977 90.9805 70.9141 90.861 71.0671C90.084 72.0159 89.5162 73.1789 88.799 74.1277C87.8875 75.4764 86.7846 76.6781 85.5267 77.6933C85.452 77.6933 85.5267 77.9075 85.6164 77.8463V77.8922Z" fill="#B98D58"/>
<path d="M92.2805 69.0625L92.5495 68.5115C92.5495 68.4044 92.4299 68.3279 92.4001 68.435L92.2357 69.0471L92.2805 69.0625Z" fill="#B98D58"/>
<path d="M75.8443 91.1293C78.3312 89.4912 81.2594 88.6986 84.2119 88.8645C85.4196 88.8566 86.6268 88.9179 87.8278 89.0482C89.6284 89.5066 91.2527 90.509 92.4898 91.9251C92.5195 91.9637 92.563 91.9886 92.6106 91.9943C92.6583 92 92.7062 91.9862 92.7438 91.9557C92.7815 91.9253 92.8057 91.8808 92.8113 91.832C92.8169 91.7832 92.8034 91.7341 92.7737 91.6956C90.7864 88.5125 89.6807 88.1147 86.0199 88.0228C82.3525 87.6657 78.6799 88.6467 75.65 90.7927C75.4558 90.9304 75.65 91.2518 75.8443 91.1293Z" fill="#B98D58"/>
<path d="M111.929 74.3113C109.571 73.7684 107.128 73.7371 104.757 74.2195C103.876 74.3572 104.324 75.9181 105.265 75.459C107.343 74.5205 109.644 74.2227 111.885 74.602C112.049 74.602 112.079 74.3419 111.885 74.3113H111.929Z" fill="#B98D58"/>
<path d="M64.1743 79.4226C65.8953 77.5532 67.7374 75.8047 69.688 74.189C69.9569 73.9747 69.5684 73.5615 69.2995 73.8064C67.4231 75.5036 65.6609 77.3289 64.0249 79.2696C63.9502 79.3767 64.0249 79.5297 64.1743 79.4226Z" fill="#B98D58"/>
<path d="M67.6261 78.2443C68.4734 77.4282 69.4171 76.7238 70.4352 76.1478C70.7041 75.9947 70.4351 75.6122 70.211 75.7346C69.1354 76.3014 68.1845 77.0878 67.4168 78.0454C67.403 78.0748 67.3988 78.108 67.4047 78.1401C67.4106 78.1722 67.4265 78.2016 67.4499 78.2238C67.4732 78.246 67.503 78.26 67.5347 78.2637C67.5664 78.2674 67.5984 78.2606 67.6261 78.2443Z" fill="#B98D58"/>
<path d="M70.6144 79.4227L72.1086 78.0454C72.3925 77.8006 71.9741 77.3567 71.7051 77.6322L70.2109 79.086C70.0017 79.3002 70.3155 79.6216 70.5396 79.4227H70.6144Z" fill="#B98D58"/>
<path d="M106.834 83.3707L109.105 82.223C109.539 82.0087 109.105 81.3048 108.732 81.565L106.58 82.9422C106.525 82.9767 106.485 83.0324 106.469 83.097C106.454 83.1616 106.464 83.2297 106.498 83.2865C106.532 83.3434 106.586 83.3842 106.649 83.3999C106.712 83.4157 106.779 83.4052 106.834 83.3707Z" fill="#B98D58"/>
<path d="M108.284 84.0136L109.359 83.5086C109.479 83.5086 109.359 83.279 109.27 83.3402L108.194 83.8605C108.104 83.8605 108.194 84.0595 108.284 84.0136Z" fill="#B98D58"/>
<path d="M55.5826 101.887C54.9699 109.11 63.1881 110.319 68.4477 110.778C76.6509 111.498 85.1679 111.085 92.9378 108.085C100.708 105.086 106.46 99.3777 111.84 93.0882C116.965 87.12 121.851 80.8457 123.27 72.8576C123.27 72.7505 123.121 72.7046 123.106 72.8576C122.045 80.2183 117.518 86.0794 112.841 91.4967C108.164 96.9139 103.382 102.285 97.1066 105.713C90.8537 108.927 83.9607 110.618 76.9647 110.656C70.6292 110.84 55.3734 111.528 55.8067 101.933C55.8067 101.78 55.5975 101.796 55.5826 101.933V101.887Z" fill="#B98D58"/>
<path d="M59.393 105.438C65.6122 107.914 72.3074 108.879 78.9523 108.258C85.5973 107.636 92.0111 105.445 97.6896 101.857C103.095 98.2926 108.105 94.1363 112.632 89.4614C117.114 85.0694 121.971 80.6621 124.122 74.5409C124.122 74.3726 123.928 74.2961 123.868 74.4644C121.552 80.6621 116.502 85.1765 111.914 89.6297C107.509 94.0978 102.645 98.064 97.4057 101.459C91.7665 104.976 85.4261 107.146 78.8556 107.808C72.285 108.47 65.6532 107.608 59.4528 105.285C59.433 105.285 59.414 105.293 59.3999 105.307C59.3859 105.321 59.3781 105.341 59.3781 105.361C59.3781 105.381 59.3859 105.401 59.3999 105.415C59.414 105.43 59.433 105.438 59.4528 105.438H59.393Z" fill="#B98D58"/>
<path d="M55.9863 100.449C53.6404 104.519 56.1207 108.866 59.6172 111.161C64.3837 114.222 69.8675 115.752 75.2915 113.671C75.6351 113.548 75.4857 112.967 75.1271 113.105C71.6171 114.405 67.7639 114.345 64.2941 112.936C59.5724 111.146 53.222 106.723 56.1805 100.602C56.1805 100.48 56.061 100.357 55.9863 100.495V100.449Z" fill="#B98D58"/>
<path d="M50.9656 92.6903C50.8909 95.7509 52.9827 99.3471 56.1505 99.898C56.4493 99.898 56.7033 99.4848 56.3746 99.3471C53.5356 98.1076 51.4138 96.0417 51.2793 92.6903C51.2689 92.6561 51.248 92.6261 51.2198 92.6049C51.1916 92.5836 51.1575 92.5721 51.1224 92.5721C51.0874 92.5721 51.0533 92.5836 51.0251 92.6049C50.9968 92.6261 50.976 92.6561 50.9656 92.6903Z" fill="#B98D58"/>
<path d="M50.5622 93.578C50.4522 95.2515 50.8349 96.9204 51.6606 98.3689C52.4863 99.8175 53.7172 100.979 55.1942 101.704C55.508 101.857 55.8069 101.367 55.4781 101.199C54.0629 100.513 52.8666 99.4298 52.0282 98.0754C51.1897 96.7211 50.7436 95.151 50.7415 93.5474C50.7415 93.523 50.7321 93.4996 50.7153 93.4824C50.6984 93.4652 50.6756 93.4556 50.6518 93.4556C50.628 93.4556 50.6053 93.4652 50.5884 93.4824C50.5716 93.4996 50.5622 93.523 50.5622 93.5474V93.578Z" fill="#B98D58"/>
<path d="M62.9789 94.0676C66.0336 93.5715 68.911 92.2746 71.3316 90.303C74.32 87.4872 76.8303 84.3655 80.0428 81.718C80.2819 81.5344 79.9382 81.1824 79.6992 81.3814C77.0765 83.4657 74.6548 85.8024 72.4672 88.3595C69.8673 91.4201 66.7145 92.7668 62.9491 93.9145C62.8445 93.9145 62.9491 94.0982 62.9491 94.0676H62.9789Z" fill="#B98D58"/>
<path d="M68.941 91.8793C71.8144 91.2866 74.4302 89.7756 76.412 87.5638C79.9682 84.0288 82.7175 80.555 87.5887 78.7646C96.6545 75.6959 105.489 71.952 114.021 67.5628C114.26 67.4403 114.021 67.0884 113.827 67.2108C108.941 69.5521 104.189 72.123 99.1987 74.2349C94.985 76.01 90.5323 77.0812 86.3335 78.8258C79.5199 81.6874 76.3074 90.2418 68.9559 91.7415C68.8662 91.7415 68.9559 91.8792 68.9559 91.8639L68.941 91.8793Z" fill="#B98D58"/>
<path d="M114.769 66.7517C111.849 67.6146 109.178 69.1899 106.984 71.3426C103.114 74.3774 98.7111 76.6218 94.014 77.9535C88.0372 79.9123 81.6569 82.1618 78.4443 88.1759C78.28 88.4667 78.7133 88.7268 78.8627 88.4361C82.7626 81.2437 90.8164 79.7439 97.7346 77.2036C100.49 76.2544 103.093 74.8931 105.46 73.1637C108.448 70.8529 111.018 68.0066 114.828 67.0425C114.978 67.0425 114.828 66.7823 114.828 66.8129L114.769 66.7517Z" fill="#B98D58"/>
<path d="M91.3392 74.2502C98.5264 74.9235 104.354 71.1896 110.585 68.129C110.854 67.9913 110.585 67.5934 110.346 67.7158C104.234 70.853 98.3919 74.5716 91.3392 74.1125C91.3232 74.1196 91.3096 74.1314 91.3 74.1463C91.2905 74.1613 91.2854 74.1788 91.2854 74.1966C91.2854 74.2145 91.2905 74.232 91.3 74.2469C91.3096 74.2619 91.3232 74.2737 91.3392 74.2808V74.2502Z" fill="#B98D58"/>
<path d="M60.7976 95.0929C67.8951 93.4095 73.0053 90.349 79.1017 86.4008C87.2451 81.1672 96.4195 77.6321 105.056 73.3779C105.997 72.9188 111.152 70.8223 111.257 70.0113C111.571 67.6546 108.045 70.6081 107.238 71.0672C103.397 73.5452 99.3282 75.6313 95.0897 77.2955C87.3796 79.8817 81.2832 84.2124 74.4846 88.7727C73.3639 89.5226 74.4846 91.3743 75.5305 90.6091C78.6385 88.4667 81.7464 86.2937 84.8693 84.1512C88.7991 81.4732 92.5346 80.402 96.9127 78.6269C102.889 76.1937 108.179 71.9394 113.767 68.6952C114.365 68.3432 113.947 67.2414 113.289 67.5169C104.219 71.4345 95.1047 75.2602 86.3934 79.9276C77.6822 84.595 70.3605 91.0835 60.7528 94.7715C60.7157 94.7875 60.6857 94.8168 60.6684 94.8539C60.651 94.891 60.6475 94.9333 60.6585 94.9729C60.6696 95.0125 60.6944 95.0465 60.7283 95.0686C60.7621 95.0907 60.8027 95.0993 60.8424 95.0929H60.7976Z" fill="#B98D58"/>
<path d="M52.2506 97.7862C52.0978 98.5535 52.0971 99.3445 52.2486 100.112C52.4 100.88 52.7005 101.608 53.1322 102.255C53.1784 102.336 53.2422 102.405 53.3187 102.457C53.3952 102.509 53.4823 102.542 53.5734 102.554C53.6644 102.566 53.7569 102.556 53.8436 102.525C53.9303 102.495 54.009 102.444 54.0736 102.377C55.05 101.306 55.7127 99.9746 55.9861 98.536C56.0222 98.3646 55.9985 98.1857 55.9191 98.0303C55.8397 97.875 55.7096 97.753 55.5515 97.6857C55.3934 97.6184 55.2172 97.61 55.0537 97.6619C54.8901 97.7138 54.7495 97.8227 54.6563 97.9698C53.8657 99.2606 53.323 100.694 53.0575 102.193C53.004 102.396 53.0314 102.613 53.1337 102.795C53.236 102.977 53.4047 103.11 53.6029 103.165C53.801 103.22 54.0123 103.192 54.1902 103.087C54.3682 102.982 54.4982 102.81 54.5517 102.607C55.0018 101.366 55.337 100.085 55.5528 98.7809C55.6723 98.0463 55.8367 97.021 55.0747 96.562C53.1322 95.4295 52.6242 99.9592 52.4747 100.985L54.1184 101.214C54.1184 100.082 54.1184 98.9339 54.0287 97.8015C54.0103 97.6318 53.9427 97.4716 53.8347 97.3414C53.7268 97.2113 53.5833 97.1172 53.4227 97.0711C53.2621 97.0251 53.0918 97.0292 52.9336 97.083C52.7753 97.1368 52.6364 97.2378 52.5345 97.373C52.0605 98.0406 51.6783 98.7718 51.3989 99.546C51.3662 99.698 51.3814 99.8566 51.4425 99.9992C51.5035 100.142 51.6071 100.261 51.7384 100.339C51.8697 100.417 52.0219 100.451 52.1731 100.435C52.3242 100.419 52.4665 100.354 52.5793 100.25C53.1346 99.6448 53.6071 98.9653 53.9839 98.23L52.4897 97.8015C52.4897 98.9339 52.4897 100.082 52.5644 101.214C52.6391 102.346 54.0586 102.438 54.208 101.444C54.29 100.784 54.4098 100.13 54.5667 99.4848C54.6414 99.1481 54.8207 98.031 55.0299 97.9545L54.4023 98.031C54.223 97.725 54.1483 97.725 54.1931 98.031V98.5666C54.1931 99.0104 54.0437 99.4389 53.954 99.8674C53.7747 100.663 53.5506 101.398 53.2966 102.224L54.7908 102.637C55.0154 101.262 55.492 99.9436 56.1954 98.7503L54.8655 98.1688C54.6467 99.4373 54.1343 100.634 53.3713 101.658L54.3126 101.535C53.9098 101.037 53.6094 100.46 53.4297 99.839C53.25 99.2184 53.1945 98.567 53.2667 97.9239C53.2667 97.4801 52.5644 97.373 52.4897 97.8168L52.2506 97.7862Z" fill="#B98D58"/>
<path d="M55.5529 102.821C55.2321 105.177 55.6785 107.576 56.823 109.646C56.8889 109.753 56.9804 109.842 57.0888 109.903C57.1973 109.965 57.3192 109.997 57.4431 109.997C57.5671 109.997 57.6889 109.965 57.7974 109.903C57.9058 109.842 57.9973 109.753 58.0632 109.646C59.1241 107.901 59.0793 108.116 58.6161 106.096C58.5634 105.903 58.444 105.736 58.2803 105.627C58.1166 105.517 57.9196 105.472 57.726 105.5C57.5324 105.528 57.3553 105.627 57.2277 105.779C57.1 105.931 57.0306 106.125 57.0322 106.325C56.8686 107.561 57.1314 108.817 57.7751 109.876C58.4189 110.935 59.4033 111.73 60.5585 112.125C61.3355 112.492 62.4413 111.681 61.8436 110.794C60.7233 109.094 59.3922 107.551 57.8839 106.203C57.1965 105.575 55.7323 106.203 56.1506 107.243C61.3804 120.358 83.7935 114.267 93.1323 110.212C106.328 104.352 116.722 93.3818 122.045 79.6979C122.254 79.1623 121.403 78.9328 121.194 79.4531C116.653 90.4796 108.367 99.4492 97.869 104.703C89.6359 108.927 63.5021 118.552 58.0483 106.417L56.4196 107.702C57.8986 108.85 59.1811 110.241 60.2149 111.819L61.2907 110.38L58.6459 106.356L57.0621 106.57C56.7334 105.33 56.3897 104.091 56.061 102.851C56.061 102.782 56.0342 102.716 55.9866 102.667C55.9389 102.619 55.8743 102.591 55.807 102.591C55.7396 102.591 55.675 102.619 55.6273 102.667C55.5797 102.716 55.5529 102.782 55.5529 102.851V102.821Z" fill="#B98D58"/>
<path d="M56.4494 103.402C60.1252 111.054 70.1962 111.635 77.4879 111.345C88.1455 110.996 98.4394 107.293 106.969 100.74C107.805 100.097 107.073 98.6737 106.132 99.2093C93.4311 107.228 69.4341 115.737 56.823 103.066C56.6437 102.867 56.3598 103.066 56.4644 103.341L56.4494 103.402Z" fill="#B98D58"/>
<path d="M93.6104 9.25827C96.1356 10.2071 101.873 12.6861 101.081 16.3283C100.23 20.6437 92.8932 20.7814 89.6657 20.9192C84.7198 21.0416 79.8337 20.506 74.8879 20.9192C69.1651 21.3782 63.5319 22.6025 57.8241 23.2146C50.7116 23.9644 41.2981 24.2705 35.0822 19.8173C23.1285 11.2323 49.9346 6.7792 54.0885 6.3048C64.182 5.37359 74.3427 5.52234 84.406 6.7486C90.1438 7.31482 96.3597 7.74326 99.3481 13.4054C99.8562 14.3542 98.4516 15.1959 97.9436 14.2471C94.5966 8.01874 86.0945 8.52375 80.2969 8.03405C75.2465 7.62087 70.1662 7.31479 65.1009 7.3454C59.2202 7.30115 53.3495 7.84961 47.5738 8.98283C45.2983 9.23445 43.0695 9.81671 40.9544 10.7121C38.4591 10.7886 37.2039 12.2424 37.2039 14.8745C34.858 18.1493 35.9339 19.8939 40.4464 20.1387C50.6817 23.7196 61.6492 21.2558 72.0639 20.2458C76.6371 19.8761 81.2285 19.8046 85.8106 20.0316C87.9324 20.1081 94.5368 20.7355 95.8816 19.4195L98.5114 12.6555C97.0967 11.2278 95.393 10.1359 93.5207 9.45722C93.5207 9.45722 93.5207 9.28889 93.5207 9.3195L93.6104 9.25827Z" fill="#B98D58"/>
<path d="M88.7244 8.29425C79.5947 2.9382 69.2249 1.69869 58.8402 1.57626C54.3575 1.57626 49.8749 1.57624 45.3923 1.98943C41.1786 2.34139 35.3362 2.2496 33.4386 7.42202C32.3478 10.2837 33.0501 13.834 33.7375 16.6803C33.7645 16.7713 33.7575 16.8694 33.7178 16.9553C33.6781 17.0413 33.6085 17.1091 33.5227 17.1454C33.4369 17.1817 33.3409 17.1839 33.2535 17.1517C33.1661 17.1195 33.0936 17.0551 33.0501 16.9711C30.9283 13.6503 30.6743 7.37608 33.3041 4.19306C36.6213 0.153069 44.3911 0.566267 48.9784 0.336722C61.3056 -0.290701 79.0867 -0.918114 89.1726 7.75869C89.4715 8.01884 89.1726 8.47789 88.7692 8.29425H88.7244Z" fill="#B98D58"/>
<path d="M37.9212 28.5553C36.1082 26.8076 34.6619 24.7 33.6703 22.3611C32.6786 20.0221 32.1626 17.5008 32.1536 14.951C32.1536 14.6344 32.2764 14.3308 32.4949 14.1069C32.7135 13.8831 33.0099 13.7573 33.319 13.7573C33.6282 13.7573 33.9246 13.8831 34.1432 14.1069C34.3617 14.3308 34.4845 14.6344 34.4845 14.951C34.3724 17.5458 34.9142 20.1265 36.0578 22.4447C37.2013 24.763 38.9082 26.7409 41.0142 28.188C39.9483 28.2799 38.9173 28.4023 37.9212 28.5553Z" fill="#B98D58"/>
<path d="M68.0594 33.7737C80.4166 33.8962 98.6309 32.4576 99.3631 16.5731C99.3772 16.513 99.4107 16.4595 99.4581 16.4213C99.5056 16.383 99.5642 16.3622 99.6246 16.3622C99.685 16.3622 99.7436 16.383 99.7911 16.4213C99.8385 16.4595 99.872 16.513 99.8861 16.5731C100.514 23.2299 95.523 28.5707 90.4427 32.0139C84.9888 35.7325 77.2787 35.9314 70.3157 35.7478C69.6131 35.0326 68.8589 34.3728 68.0594 33.7737Z" fill="#B98D58"/>
<path d="M87.5587 8.01873C83.0761 7.3607 78.8923 9.04404 74.5442 9.12055C70.6741 9.19707 66.9685 8.40131 63.0686 8.69207C58.4963 9.04404 54.2677 10.6968 49.8 11.1711C45.3323 11.6455 42.837 10.4213 38.444 12.3954C38.4027 12.4053 38.3592 12.4011 38.3205 12.3833C38.2817 12.3655 38.2497 12.3351 38.2293 12.2969C38.209 12.2587 38.2014 12.2147 38.2078 12.1717C38.2142 12.1287 38.2342 12.089 38.2647 12.0587C40.6165 10.3238 43.3085 9.13325 46.1542 8.56966C50.8751 7.14413 55.6955 6.09026 60.5733 5.41725C65.3398 5.01937 69.0454 6.04463 73.6924 6.76388C78.3394 7.48312 82.9715 6.59556 87.5886 7.92692V8.01873H87.5587Z" fill="#B98D58"/>
<path d="M36.4272 13.084L36.1582 13.4054C36.1582 13.4054 35.9938 13.4054 36.0536 13.2983L36.3226 12.9769C36.3226 12.9004 36.472 12.9769 36.4272 13.084Z" fill="#B98D58"/>
<path d="M99.408 17.8127C96.1058 21.2865 91.429 21.6538 86.9613 22.3272C80.6856 23.2606 74.4249 23.6585 68.1044 23.9952C61.5749 24.556 55.0219 24.7808 48.4704 24.6685C43.9878 24.439 38.3098 24.3318 34.9478 20.8428C34.8134 20.6897 35.0375 20.4602 35.172 20.6132C39.1466 24.7909 46.6923 24.393 51.9968 24.2706C57.3012 24.1482 62.7401 23.7044 68.1044 23.4137C73.4686 23.1229 78.6983 22.8474 83.9579 22.1588C89.2175 21.4702 95.284 21.3324 99.2287 17.5679C99.3483 17.4608 99.5276 17.5679 99.408 17.7516V17.8127Z" fill="#B98D58"/>
<path d="M99.0345 17.3536C98.6161 29.5194 80.5213 28.5553 72.5272 28.8308C59.3334 29.2746 47.1257 28.9532 35.9341 20.7355C35.4708 20.3835 35.9341 19.5878 36.3973 19.9398C46.005 26.9332 56.1357 28.5859 67.7009 28.3258C77.1443 28.1115 96.4346 30.1469 98.7357 17.323C98.7357 17.2824 98.7514 17.2435 98.7794 17.2148C98.8074 17.1861 98.8454 17.1699 98.8851 17.1699C98.9247 17.1699 98.9627 17.1861 98.9907 17.2148C99.0188 17.2435 99.0345 17.2824 99.0345 17.323V17.3536Z" fill="#B98D58"/>
<path d="M40.6107 28.2188C37.982 26.7136 35.9753 24.2832 34.9626 21.3784C34.6488 20.6285 35.7097 19.9705 36.0385 20.7203C37.6373 24.3624 40.8349 26.566 44.7198 27.9586C43.3153 28.0045 41.9406 28.0964 40.6107 28.2188Z" fill="#B98D58"/>
<path d="M61.6642 30.3305C63.786 30.407 65.7583 30.4376 67.4766 30.5141C77.3235 30.9885 97.062 31.2946 98.2424 16.9404C98.2424 16.8024 98.2959 16.6701 98.3912 16.5725C98.4865 16.4749 98.6157 16.42 98.7504 16.42C98.8852 16.42 99.0144 16.4749 99.1097 16.5725C99.2049 16.6701 99.2585 16.8024 99.2585 16.9404C100.2 30.8508 82.5682 33.0238 72.9903 33.1309C70.9731 33.1309 68.9559 33.1309 67.0134 32.9932C65.3325 31.9048 63.5383 31.0118 61.6642 30.3305Z" fill="#B98D58"/>
<path d="M96.5839 18.8992C95.777 23.4901 92.1909 28.2187 87.4543 28.9379C87.4287 28.945 87.4022 28.9467 87.376 28.9432C87.3498 28.9397 87.3245 28.931 87.3016 28.9175C87.2787 28.904 87.2586 28.886 87.2425 28.8646C87.2264 28.8432 87.2146 28.8187 87.2077 28.7925C87.2008 28.7664 87.1991 28.7391 87.2025 28.7123C87.2059 28.6855 87.2144 28.6596 87.2276 28.6362C87.2408 28.6127 87.2584 28.5922 87.2793 28.5757C87.3003 28.5592 87.3241 28.5471 87.3497 28.54C91.8323 26.8261 95.3437 23.8726 96.3149 18.8226C96.3149 18.6849 96.5689 18.8226 96.554 18.8992H96.5839Z" fill="#B98D58"/>
<path d="M92.4452 21.2712C91.3544 25.3571 87.9625 28.586 84.3466 30.5295C84.1224 30.6519 83.8385 30.3306 84.0477 30.1469C87.2603 27.423 90.8613 25.5561 92.2659 21.2253C92.2659 21.1029 92.49 21.2253 92.4452 21.2253V21.2712Z" fill="#B98D58"/>
<path d="M88.9932 22.2812C87.3347 25.3418 84.6899 30.4989 80.7751 30.9733C80.701 30.9696 80.6308 30.9378 80.5784 30.884C80.5259 30.8303 80.4948 30.7585 80.4912 30.6826C80.669 29.7975 81.0768 28.978 81.6716 28.3106C82.4934 27.117 83.3451 25.9386 84.2118 24.7909C84.3463 24.6226 84.9589 23.3371 85.198 24.0411C85.198 24.24 83.9578 25.5714 83.7038 25.7397C82.7006 26.9663 81.6172 28.1218 80.4613 29.1982C80.3268 29.3206 80.1625 29.1982 80.267 28.984C81.8509 27.0099 83.7336 25.3112 85.3025 23.3065C85.4071 23.1688 85.6612 23.3065 85.5566 23.5055C84.5853 24.8368 83.629 26.1682 82.7176 27.5455C82.5383 27.8209 81.2981 29.3359 81.3877 29.6114C81.6716 30.5449 82.6578 29.6114 83.0164 29.3206C85.3937 27.3771 87.331 24.9284 88.6944 22.1435C88.7123 22.111 88.7419 22.0871 88.777 22.0771C88.812 22.0671 88.8495 22.0717 88.8812 22.0899C88.9129 22.1082 88.9362 22.1386 88.946 22.1745C88.9558 22.2103 88.9513 22.2488 88.9335 22.2812H88.9932Z" fill="#B98D58"/>
<path d="M82.6129 23.3983C81.9943 24.833 81.0396 26.0892 79.8336 27.0557C79.5945 27.2393 79.2807 26.8262 79.5049 26.6272C80.6719 25.709 81.6517 24.5651 82.3887 23.2605C82.4634 23.1075 82.6876 23.2606 82.6129 23.3983Z" fill="#B98D58"/>
<path d="M79.7591 24.5767C79.2212 25.1276 78.6982 25.6939 78.1155 26.1989C78.0867 26.213 78.0543 26.2174 78.023 26.2113C77.9916 26.2052 77.963 26.189 77.9413 26.165C77.9196 26.1411 77.9059 26.1107 77.9023 26.0782C77.8987 26.0458 77.9053 26.0129 77.9212 25.9846C78.4143 25.4031 78.9821 24.8828 79.5201 24.3472C79.6844 24.1942 79.9086 24.439 79.7591 24.5767Z" fill="#B98D58"/>
<path d="M70.689 26.1375C69.8522 26.6731 69.0006 27.2087 68.1787 27.7749C67.9994 27.8973 67.8201 27.576 68.0144 27.4842C68.896 27.0098 69.7477 26.5048 70.6143 25.9539C70.689 25.9539 70.7637 26.0457 70.689 26.0916V26.1375Z" fill="#B98D58"/>
<path d="M66.6397 26.9944L65.4592 27.5147C65.4389 27.5285 65.4158 27.5375 65.3916 27.541C65.3674 27.5445 65.3428 27.5425 65.3195 27.5351C65.2962 27.5276 65.2748 27.5149 65.2569 27.498C65.2389 27.481 65.2249 27.4601 65.2159 27.4369C65.2068 27.4137 65.2029 27.3887 65.2044 27.3637C65.206 27.3388 65.213 27.3145 65.2248 27.2926C65.2367 27.2708 65.2531 27.2519 65.273 27.2373C65.2929 27.2228 65.3157 27.213 65.3397 27.2087L66.5202 26.7036C66.6845 26.6271 66.804 26.9179 66.6397 26.9944Z" fill="#B98D58"/>
<path d="M61.8285 20.0775C56.1756 20.5346 50.4901 20.3241 44.8842 19.45C44.8419 19.4334 44.8055 19.404 44.7799 19.3657C44.7542 19.3275 44.7405 19.2822 44.7405 19.2358C44.7405 19.1894 44.7542 19.1441 44.7799 19.1058C44.8055 19.0676 44.8419 19.0382 44.8842 19.0215L45.4968 18.7308C45.7209 18.6237 45.9301 18.9603 45.706 19.098C46.3485 18.7155 49.3518 19.6337 50.1886 19.7255C51.4935 19.8479 52.7935 19.9398 54.0885 20.001C56.6936 20.1057 59.3024 20.0648 61.9032 19.8785C62.0227 19.8785 62.0227 20.0622 61.9032 20.0775H61.8285Z" fill="#B98D58"/>
<path d="M51.877 18.5319C50.2184 18.287 48.515 18.3177 46.8714 18.0575C46.6771 18.0575 46.7518 17.7668 46.8714 17.7515C48.5696 17.7242 50.265 17.904 51.9218 18.287C52.0712 18.287 52.0115 18.5472 51.8471 18.5319H51.877Z" fill="#B98D58"/>
<path d="M47.1254 16.3436L45.4071 16.0834C45.1531 16.0834 45.2576 15.6397 45.5116 15.6856L47.23 15.9763C47.4691 15.9763 47.3645 16.3742 47.1254 16.3436Z" fill="#B98D58"/>
<path d="M44.9289 14.5685H44.2266C44.186 14.5566 44.1503 14.5316 44.1249 14.497C44.0994 14.4625 44.0857 14.4204 44.0857 14.3772C44.0857 14.334 44.0994 14.2919 44.1249 14.2574C44.1503 14.2229 44.186 14.1978 44.2266 14.1859H44.9289C44.9764 14.1859 45.022 14.2053 45.0556 14.2397C45.0893 14.2742 45.1082 14.3208 45.1082 14.3695C45.1082 14.4182 45.0893 14.465 45.0556 14.4994C45.022 14.5339 44.9764 14.5532 44.9289 14.5532V14.5685Z" fill="#B98D58"/>
<path d="M80.775 4.7134C79.696 5.33359 78.5836 5.89049 77.4429 6.38142C77.3682 6.38142 77.3234 6.28962 77.4429 6.25901C78.5193 5.64283 79.6322 5.09596 80.775 4.62158C80.775 4.62158 80.8945 4.62158 80.775 4.7134Z" fill="#B98D58"/>
<path d="M79.5052 4.3155C78.6684 4.71338 77.8466 5.12656 77.0397 5.55504C76.3479 6.00862 75.6178 6.39782 74.8582 6.71804C74.821 6.72531 74.7825 6.72035 74.7483 6.70384C74.714 6.68734 74.6857 6.66016 74.6675 6.62618C74.6492 6.5922 74.6419 6.55318 74.6467 6.5147C74.6514 6.47623 74.6679 6.44028 74.6938 6.41201C76.162 5.43232 77.763 4.67946 79.4454 4.17773C79.4454 4.17773 79.565 4.2849 79.4454 4.3155H79.5052Z" fill="#B98D58"/>
<path d="M77.3235 3.42794C75.8293 4.11658 74.4397 4.95824 72.9903 5.72339C72.956 5.73275 72.9197 5.73053 72.8868 5.71704C72.8539 5.70355 72.8262 5.67951 72.8077 5.64853C72.7892 5.61755 72.781 5.58128 72.7843 5.54513C72.7876 5.50898 72.8022 5.4749 72.8259 5.44795C74.2516 4.58376 75.7522 3.85631 77.3085 3.2749C77.3982 3.2749 77.458 3.39734 77.3085 3.42794H77.3235Z" fill="#B98D58"/>
<path d="M72.7511 3.01465C71.1784 3.90736 69.5337 4.65998 67.8351 5.26419C67.6409 5.26419 67.5811 5.03463 67.8351 4.95811C69.4787 4.26948 71.1224 3.64208 72.7212 2.83102C72.7446 2.82075 72.7709 2.8196 72.7952 2.8278C72.8194 2.836 72.8398 2.85297 72.8527 2.87553C72.8655 2.89808 72.8699 2.92468 72.8649 2.9503C72.86 2.97591 72.846 2.9988 72.8258 3.01465H72.7511Z" fill="#B98D58"/>
<path d="M68.403 2.98406C67.5277 3.35067 66.6789 3.78027 65.8629 4.26956C65.7134 4.34607 65.5341 4.13181 65.6835 4.00939C66.4707 3.40468 67.371 2.97235 68.3283 2.73926C68.36 2.73926 68.3904 2.75212 68.4128 2.77508C68.4352 2.79804 68.4478 2.82919 68.4478 2.86166C68.4478 2.89413 68.4352 2.92529 68.4128 2.94824C68.3904 2.9712 68.36 2.98406 68.3283 2.98406H68.403Z" fill="#B98D58"/>
<path d="M83.8083 5.57035C82.1974 6.29739 80.54 6.91096 78.8475 7.40673C78.5636 7.40673 78.3544 7.05475 78.6383 6.91702C80.3034 6.29694 82.0052 5.78581 83.7336 5.38672C83.7653 5.38672 83.7957 5.39963 83.8181 5.42259C83.8406 5.44554 83.8531 5.4767 83.8531 5.50917C83.8531 5.54164 83.8406 5.57275 83.8181 5.59571C83.7957 5.61866 83.7653 5.63157 83.7336 5.63157L83.8083 5.57035Z" fill="#B98D58"/>
<path d="M84.5553 6.6568C82.6014 5.67365 80.5599 4.88447 78.459 4.30013C76.3485 3.88051 74.194 3.74165 72.0488 3.88697C71.9901 3.87249 71.9379 3.83817 71.9005 3.78959C71.8631 3.74102 71.8428 3.68098 71.8428 3.61913C71.8428 3.55729 71.8631 3.49725 71.9005 3.44868C71.9379 3.4001 71.9901 3.36583 72.0488 3.35135C76.3222 1.98938 81.0141 4.46847 84.7197 6.50377C84.8243 6.50377 84.7197 6.71802 84.6301 6.6568H84.5553Z" fill="#B98D58"/>
<path d="M82.6428 6.61091C78.1973 5.35007 73.6349 4.57042 69.0306 4.28483C68.6869 4.28483 68.5823 3.70334 68.9558 3.64213C70.9072 3.50784 72.8663 3.73596 74.7385 4.31546C77.428 4.88167 80.0877 5.55499 82.7325 6.30483C82.9118 6.30483 82.8371 6.65682 82.6428 6.61091Z" fill="#B98D58"/>
<path d="M76.5316 6.06001C74.7054 5.6817 72.8595 5.4109 71.0031 5.24896C70.8237 5.24896 70.8088 4.94289 71.0031 4.9582C72.8868 5.09315 74.7562 5.39008 76.5914 5.8458C76.6191 5.8458 76.6457 5.85704 76.6653 5.87713C76.685 5.89722 76.696 5.92447 76.696 5.95288C76.696 5.98129 76.685 6.00854 76.6653 6.02863C76.6457 6.04872 76.6191 6.06001 76.5914 6.06001H76.5316Z" fill="#B98D58"/>
<path d="M46.1842 6.42735C41.5522 7.6669 37.0995 9.04418 34.0214 13.0383C33.7972 13.3443 33.3938 12.9159 33.6179 12.6251C36.681 8.64632 41.5372 7.34556 46.1244 6.21313C46.1522 6.21313 46.1788 6.22443 46.1984 6.24452C46.218 6.26461 46.2291 6.29186 46.2291 6.32027C46.2291 6.34868 46.218 6.37593 46.1984 6.39602C46.1788 6.41611 46.1522 6.42735 46.1244 6.42735H46.1842Z" fill="#B98D58"/>
<path d="M42.8821 4.88156C38.9374 6.71792 34.9777 9.01335 32.9008 13.0839C32.7364 13.4053 32.2284 13.0839 32.4077 12.7932C34.8432 8.7685 38.5638 6.45774 42.7028 4.56016C42.912 4.46835 43.0913 4.77444 42.8821 4.88156Z" fill="#B98D58"/>
<path d="M39.3255 5.00409C37.9175 5.66953 36.5764 6.47422 35.3211 7.40667C35.1268 7.5597 34.9176 7.20773 35.1268 7.07C36.398 6.15917 37.7544 5.38001 39.1761 4.74396C39.3405 4.66745 39.4899 4.91227 39.3255 5.00409Z" fill="#B98D58"/>
<path d="M41.2532 9.59497C40.4934 8.86867 39.6564 8.23216 38.7578 7.69741C37.921 7.22302 37.0245 6.94755 36.1878 6.48846C36.1496 6.45956 36.1221 6.41823 36.1099 6.37124C36.0977 6.32425 36.1015 6.27438 36.1206 6.22988C36.1398 6.18537 36.1731 6.14887 36.2152 6.12634C36.2572 6.1038 36.3055 6.09658 36.3521 6.10588C38.2944 6.74471 40.0472 7.87655 41.4474 9.39602C41.5818 9.51844 41.4474 9.71739 41.2532 9.59497Z" fill="#B98D58"/>
<path d="M37.9211 10.8804C36.8701 9.76172 35.6363 8.83985 34.2752 8.15651C34.0212 8.01879 34.1856 7.55968 34.4695 7.66681C35.9347 8.29682 37.2125 9.31005 38.1751 10.605C38.3395 10.7886 38.0705 11.0641 37.9211 10.8804Z" fill="#B98D58"/>
<path d="M34.8281 11.2171L33.6178 10.7274C33.319 10.6203 33.4535 10.1153 33.7523 10.2378L34.9477 10.7427C35.2316 10.8652 35.112 11.3395 34.8281 11.2171Z" fill="#B98D58"/>
<path d="M95.8067 15.15C94.1673 13.0782 92.1722 11.3305 89.9196 9.9929C87.484 8.4626 85.1231 8.34018 82.4485 7.8964C82.2543 7.8964 82.2991 7.52911 82.4485 7.54441C85.1304 7.54522 87.7626 8.28523 90.069 9.68682C92.3341 11.0829 94.3296 12.8932 95.9562 15.0276C95.9562 15.1194 95.8665 15.2418 95.7918 15.15H95.8067Z" fill="#B98D58"/>
<path d="M94.8806 19.3736C95.1944 15.1194 90.2336 12.2118 87.036 10.8499C86.767 10.7274 86.8567 10.3295 87.1556 10.4061C90.652 11.1865 95.6277 15.2877 95.0002 19.3889H94.8806V19.3736Z" fill="#B98D58"/>
<path d="M89.9345 15.1499L87.1404 13.3136C87.1126 13.2953 87.0931 13.2665 87.0861 13.2335C87.0791 13.2005 87.0852 13.166 87.103 13.1376C87.1208 13.1092 87.1489 13.0892 87.1812 13.082C87.2134 13.0748 87.2471 13.0811 87.2748 13.0993L90.0391 14.9663C90.1437 15.0428 90.0391 15.2264 89.9345 15.1499Z" fill="#B98D58"/>
<path d="M33.3342 89.1553C33.046 89.2145 32.7769 89.3466 32.5512 89.5395C32.3256 89.7324 32.1506 89.98 32.0422 90.2598C31.9338 90.5396 31.8955 90.8427 31.9306 91.1416C31.9657 91.4405 32.0733 91.7256 32.2434 91.9711C32.6413 92.5433 33.2395 92.9359 33.9133 93.0671C34.5871 93.1983 35.2843 93.0578 35.8594 92.675C36.4327 92.3651 36.8647 91.8376 37.063 91.2055C37.2613 90.5734 37.21 89.8869 36.9203 89.293C36.6329 88.7188 36.1347 88.2849 35.535 88.0869C34.9353 87.8889 34.2834 87.9429 33.7227 88.2371C33.4388 88.4208 33.6181 88.9564 33.9618 88.8186C34.3451 88.6502 34.7735 88.6225 35.1743 88.7406C35.5752 88.8586 35.924 89.115 36.1614 89.4662C36.3988 89.8174 36.5103 90.2419 36.4771 90.6678C36.4438 91.0936 36.2679 91.4946 35.979 91.8027C35.6402 92.1572 35.2021 92.3948 34.7255 92.4826C34.2488 92.5703 33.7573 92.5039 33.3193 92.2924C32.1538 91.6803 31.825 89.798 33.4089 89.446C33.5882 89.446 33.5135 89.1247 33.3342 89.1553Z" fill="#B98D58"/>
<path d="M159.415 86.8445C159.12 86.9 158.854 87.062 158.666 87.301C158.477 87.5401 158.378 87.8404 158.388 88.1475C158.397 88.4547 158.513 88.7484 158.715 88.9754C158.917 89.2023 159.192 89.3476 159.49 89.3848C159.795 89.3958 160.094 89.2991 160.337 89.1111C160.581 88.9231 160.754 88.6552 160.827 88.3522C160.901 88.0492 160.87 87.7295 160.741 87.4467C160.612 87.1638 160.392 86.9351 160.118 86.7986C159.64 86.5385 159.221 87.3036 159.699 87.5331C160.177 87.7627 160.282 88.5126 159.699 88.6197C159.117 88.7268 158.833 87.5638 159.61 87.3802C159.953 87.2883 159.804 86.7833 159.46 86.8445H159.415Z" fill="#B98D58"/>
<path d="M122.598 93.7155C122.403 93.7697 122.221 93.8638 122.063 93.992C121.904 94.1203 121.773 94.28 121.677 94.4616C121.581 94.6433 121.521 94.843 121.502 95.0488C121.483 95.2546 121.505 95.4621 121.567 95.659C121.642 95.8688 121.765 96.0572 121.925 96.2087C122.086 96.3602 122.279 96.4705 122.489 96.5303C122.7 96.5901 122.921 96.5978 123.134 96.5527C123.348 96.5077 123.548 96.4111 123.719 96.2711C123.906 96.1573 124.064 95.9983 124.178 95.808C124.293 95.6178 124.36 95.4018 124.375 95.1789C124.39 94.956 124.351 94.7328 124.263 94.5285C124.174 94.3242 124.039 94.145 123.868 94.0063C123.151 93.4094 121.866 93.3788 121.537 94.4194C121.512 94.5207 121.517 94.6272 121.551 94.7256C121.585 94.8241 121.646 94.9104 121.727 94.9738C121.808 95.0372 121.905 95.075 122.007 95.0825C122.108 95.0901 122.21 95.067 122.299 95.0163C122.498 94.8253 122.759 94.7163 123.031 94.7102C123.118 94.718 123.201 94.7527 123.269 94.8096C123.336 94.8666 123.386 94.9432 123.41 95.0293C123.434 95.1154 123.432 95.2071 123.405 95.2922C123.377 95.3773 123.325 95.4518 123.255 95.506C122.448 96.3323 121.761 94.6643 122.762 94.297C122.827 94.2664 122.879 94.2129 122.909 94.1463C122.939 94.0796 122.945 94.0042 122.925 93.9337C122.905 93.8633 122.861 93.8025 122.801 93.7625C122.741 93.7224 122.669 93.7058 122.598 93.7155Z" fill="#B98D58"/>
<path d="M101.216 127.137C100.861 127.145 100.514 127.238 100.202 127.411C99.8907 127.583 99.6237 127.829 99.4235 128.128C99.2234 128.428 99.0958 128.772 99.0515 129.132C99.0071 129.492 99.0472 129.857 99.1686 130.198C99.3077 130.546 99.5236 130.856 99.7993 131.104C100.075 131.351 100.403 131.531 100.758 131.627C101.112 131.723 101.484 131.734 101.843 131.659C102.203 131.584 102.54 131.424 102.829 131.193C103.495 130.727 103.955 130.012 104.112 129.202C104.268 128.393 104.108 127.552 103.666 126.862C102.874 125.791 100.573 125.332 100.259 127.046C100.237 127.145 100.243 127.249 100.276 127.344C100.31 127.44 100.369 127.525 100.447 127.587C100.526 127.65 100.62 127.688 100.719 127.698C100.818 127.708 100.918 127.689 101.006 127.642C101.544 127.367 102.306 127.061 102.77 127.642C102.979 128.03 103.057 128.479 102.989 128.917C102.921 129.355 102.713 129.758 102.396 130.06C102.252 130.228 102.071 130.359 101.869 130.443C101.667 130.526 101.448 130.561 101.231 130.543C101.013 130.525 100.803 130.455 100.616 130.34C100.429 130.224 100.271 130.066 100.155 129.877C100.024 129.652 99.9514 129.397 99.9443 129.135C99.9372 128.874 99.9956 128.615 100.114 128.383C100.232 128.151 100.407 127.955 100.621 127.811C100.834 127.668 101.08 127.584 101.335 127.566C101.604 127.566 101.544 127.061 101.26 127.076L101.216 127.137Z" fill="#B98D58"/>
</g>
<defs>
<clipPath id="clip0_303_756">
<rect width="200" height="150" fill="white" transform="translate(-0.00170898)"/>
</clipPath>
</defs>
</svg>
