<svg width="44" height="50" viewBox="0 0 44 50" fill="none" xmlns="http://www.w3.org/2000/svg">
<g clip-path="url(#clip0_325_1066)">
<path d="M26.5575 0C26.9017 0.0794271 27.2471 0.151042 27.5873 0.238282C29.2592 0.664941 30.7425 1.63588 31.8048 2.99886C32.867 4.36183 33.4481 6.03976 33.4569 7.76953C33.4686 9.15234 33.4491 10.5352 33.4699 11.918C33.4699 12.1367 33.6089 12.3542 33.6894 12.569C33.8699 13.0625 34.1556 13.543 34.2088 14.0508C34.2971 14.832 34.2452 15.6432 34.2283 16.4401C34.2232 17.0491 33.9805 17.632 33.5521 18.0637C33.1237 18.4955 32.5437 18.7419 31.9363 18.75C31.4026 18.7643 30.8662 18.7331 30.3338 18.7669C30.2515 18.781 30.1735 18.8139 30.1059 18.8632C30.0384 18.9124 29.983 18.9766 29.9443 19.0508C29.5609 20.1594 28.9752 21.1869 28.2171 22.0807C28.0954 22.2444 28.0294 22.443 28.0288 22.6471C28.012 23.8841 28.0288 25.1211 28.0107 26.3581C28.0042 26.6953 28.1132 26.8346 28.4236 26.9427C31.7843 28.1146 35.1347 29.3112 38.4993 30.4701C41.1316 31.3815 42.8184 33.1341 43.4236 35.8802C43.5245 36.3904 43.5724 36.9096 43.5664 37.4297C43.5807 39.6432 43.5729 41.8568 43.5729 44.0703C43.5729 45.138 43.4054 45.3047 42.3341 45.3177C42.2535 45.3177 42.173 45.3255 42.0172 45.332V46.1875C42.0172 47.0833 41.9951 47.9792 42.0263 48.8724C42.0432 49.3503 41.925 49.7279 41.5315 50.0052H40.9485C40.5589 49.7292 40.4368 49.3542 40.4537 48.8737C40.4836 47.9792 40.4615 47.0846 40.4615 46.1888V45.3385H35.7918C35.7918 46.5326 35.7736 47.7005 35.8009 48.8672C35.8126 49.3451 35.6996 49.7227 35.3061 50H34.723C34.3335 49.724 34.2179 49.349 34.2283 48.8685C34.2543 47.5846 34.2374 46.2995 34.2374 45.0143V42.0365C33.0327 41.7038 31.9516 41.0249 31.1273 40.0833C30.314 39.1379 29.7884 37.9783 29.6131 36.7422H13.9626C13.8032 37.984 13.2801 39.1505 12.4596 40.0943C11.639 41.0381 10.5578 41.7167 9.35258 42.0443C9.35258 44.3451 9.34089 46.6016 9.36167 48.8646C9.36167 49.3411 9.26038 49.7188 8.86691 49.9961H8.28384C7.89427 49.7201 7.7722 49.3451 7.78908 48.8646C7.81895 47.9701 7.79687 47.0755 7.79687 46.1797V45.3385H3.13105C3.13105 46.5326 3.11287 47.7005 3.14144 48.8672C3.15183 49.3451 3.03885 49.7227 2.64538 50H2.06232C1.66625 49.724 1.55587 49.349 1.56756 48.8685C1.59483 47.6966 1.57665 46.5313 1.57665 45.3086C1.28187 45.3086 1.02605 45.3255 0.774121 45.3086C0.346886 45.276 0.037823 45.0299 0.037823 44.6068C0.037823 41.8568 -0.0920356 39.0951 0.13262 36.3633C0.37156 33.4987 2.10387 31.5729 4.78026 30.5964C8.21502 29.3411 11.6744 28.1549 15.1235 26.9531C15.4767 26.8307 15.5858 26.6667 15.578 26.3021C15.5533 25.082 15.578 23.8607 15.5585 22.6406C15.5497 22.4212 15.472 22.2102 15.3365 22.0378C14.5933 21.1733 14.0303 20.1682 13.6808 19.082C13.5951 18.8099 13.4652 18.7344 13.1977 18.7448C12.6783 18.7643 12.1588 18.7604 11.6394 18.7448C11.0321 18.7363 10.4523 18.4899 10.0239 18.0582C9.59559 17.6265 9.35275 17.0438 9.34738 16.4349C9.3318 15.638 9.27856 14.8333 9.36816 14.0456C9.4253 13.5391 9.71358 13.0599 9.89539 12.5664C9.9746 12.3503 10.1084 12.1315 10.111 11.9154C10.1304 10.3203 10.111 8.72526 10.1226 7.13021C10.133 4.81771 11.5511 3.01172 13.7808 2.44271C13.9106 2.41146 14.0872 2.33724 14.1171 2.24219C14.5171 1.04167 15.3949 0.372396 16.5519 0H26.5575ZM14.8105 10.0664C14.8105 12.388 14.8105 14.6641 14.8105 16.9401C14.8217 17.2477 14.8653 17.5532 14.9404 17.8516C15.7195 21.3763 18.9829 23.7969 22.4345 23.4102C26.1121 22.9974 28.7651 20.0547 28.782 16.3607C28.7885 14.7669 28.782 13.1732 28.782 11.5794V10.9505C28.6015 10.9349 28.4743 10.9206 28.347 10.9128C24.9811 10.7135 21.7333 10.1068 18.8595 8.17839C18.8017 8.15449 18.7392 8.14428 18.6768 8.14857C18.6144 8.15287 18.5538 8.17153 18.4998 8.20313C17.4038 9.06082 16.1503 9.69394 14.8105 10.0664ZM13.2405 11.6966V10.5898C13.2405 10.2148 13.2341 9.84115 13.2405 9.46745C13.2535 8.92708 13.5003 8.67057 14.0197 8.58984C14.3846 8.53255 14.7833 8.5 15.0936 8.32943C16.1052 7.76042 17.0934 7.14974 18.0674 6.51823C18.5738 6.1901 18.7907 6.20052 19.292 6.51823C20.136 7.05339 20.9801 7.61328 21.8891 8.00781C24.2461 9.01953 26.7458 9.33854 29.2885 9.375C30.1131 9.38672 30.3468 9.6237 30.3481 10.4609C30.3481 10.875 30.3481 11.2904 30.3481 11.694H31.8882C31.8882 10.224 31.9623 8.77604 31.8739 7.33724C31.6818 4.21224 29.0612 1.64453 25.9953 1.58333C23.0345 1.52344 20.0711 1.5599 17.1077 1.57031C16.2883 1.57031 15.6793 2.16927 15.578 2.98698C15.4923 3.69792 15.3183 3.86328 14.595 3.91536C13.9191 3.95972 13.2762 4.22466 12.7646 4.66973C12.2529 5.1148 11.9006 5.71553 11.7615 6.38021C11.7416 6.4421 11.7277 6.50576 11.7199 6.57031C11.7199 8.27214 11.7199 9.97526 11.7199 11.6979L13.2405 11.6966ZM31.126 29.5495V30.0495C31.126 31.9701 31.126 33.8906 31.126 35.8112C31.1325 38.2161 32.5752 40.0365 34.9074 40.5938C35.6087 40.7604 35.7892 40.9844 35.7905 41.7057C35.7905 42.3815 35.7905 43.0573 35.7905 43.724H42.012V43.2695C42.012 41.3164 42.012 39.3633 42.012 37.4102C42.012 34.8555 40.6147 32.8828 38.2136 32.0313C36.2017 31.3168 34.188 30.6063 32.1726 29.8997C31.8415 29.7852 31.5077 29.6771 31.126 29.5495ZM7.79817 43.7422C7.79817 43.0065 7.79817 42.3099 7.79817 41.6172C7.79817 40.9661 7.97478 40.7513 8.60589 40.6107C10.968 40.0898 12.4549 38.2331 12.4627 35.793C12.4627 33.8737 12.4627 31.9544 12.4627 30.0365C12.4627 29.8945 12.4497 29.7539 12.4419 29.5859C12.3542 29.5991 12.2675 29.6178 12.1822 29.6419C9.87851 30.4492 7.56832 31.2383 5.27502 32.0716C2.92847 32.9219 1.58184 34.8958 1.57665 37.4154C1.57665 39.3668 1.57665 41.3199 1.57665 43.2747V43.7461L7.79817 43.7422ZM17.148 35.1224H26.4329V29.0169C24.9785 29.9102 23.4552 30.3776 21.7956 30.3802C20.136 30.3828 18.6011 29.8854 17.148 29.013V35.1224ZM17.135 23.6432C17.135 24.7344 17.1272 25.7721 17.1454 26.8086C17.1698 26.9624 17.2503 27.1016 17.3713 27.1992C19.8166 29.332 23.7552 29.3372 26.216 27.2148C26.3186 27.1263 26.4498 26.9935 26.4524 26.8789C26.4705 25.8151 26.4627 24.7526 26.4627 23.6654C22.3553 25.4609 20.8373 25.4596 17.1298 23.6419L17.135 23.6432ZM15.5611 35.1354V28.4661C15.1819 28.5964 14.8378 28.7266 14.482 28.8216C14.1262 28.9167 14.0054 29.082 14.0132 29.4727C14.0405 30.7904 14.0236 32.1081 14.0236 33.4258V35.1393L15.5611 35.1354ZM28.0561 28.4675V35.1341H29.5755C29.5755 33.1458 29.5755 31.181 29.5755 29.2174C29.5725 29.166 29.5581 29.1158 29.5331 29.0707C29.5081 29.0256 29.4733 28.9868 29.4313 28.957C28.9742 28.776 28.5171 28.6276 28.0509 28.4661L28.0561 28.4675ZM13.2302 13.2813C12.6886 13.2813 12.2043 13.2695 11.7212 13.2813C11.2381 13.293 10.9252 13.582 10.9148 14.0625C10.8966 14.8438 10.8992 15.625 10.9148 16.4063C10.9239 16.8372 11.1745 17.1289 11.5952 17.1628C12.1367 17.2057 12.6835 17.1732 13.2302 17.1732V13.2813ZM30.3715 17.1875C30.9065 17.1875 31.422 17.2083 31.9298 17.1875C32.3778 17.1641 32.6583 16.8919 32.6726 16.4414C32.6973 15.6458 32.6934 14.849 32.6726 14.0534C32.6775 13.9586 32.6633 13.8638 32.631 13.7745C32.5987 13.6853 32.5489 13.6035 32.4844 13.5339C32.42 13.4643 32.3423 13.4084 32.256 13.3695C32.1696 13.3306 32.0764 13.3094 31.9817 13.3073C31.4558 13.2682 30.9234 13.2982 30.365 13.2982L30.3715 17.1875Z" fill="#B98D58"/>
<path d="M17.2866 43.8801C17.4321 41.6887 18.2891 39.9661 20.1708 38.8671C22.3862 37.5728 24.9483 38.4765 25.9105 40.8658C26.9663 43.4856 25.6989 46.7903 23.1835 47.9622C20.6188 49.1588 17.9892 47.832 17.4269 45.0377C17.3503 44.6432 17.3308 44.2343 17.2866 43.8801ZM19.7007 46.1757C20.9837 45.4075 21.2941 44.7044 20.9902 43.3111C20.8211 42.6262 20.8855 41.9042 21.1733 41.2603C21.3901 40.7877 21.6927 40.3489 21.9641 39.8775C20.624 40.164 19.7124 40.94 19.1942 42.207C18.6164 43.6197 18.7371 44.9348 19.7007 46.177V46.1757ZM21.507 46.8489C23.2095 46.5143 24.1107 45.4986 24.5613 44.0338C24.9509 42.7577 24.7314 41.5885 23.8769 40.5481C22.7628 41.2239 22.2667 42.0299 22.5121 42.9778C22.8861 44.4218 22.59 45.664 21.507 46.8502V46.8489Z" fill="#B98D58"/>
</g>
<defs>
<clipPath id="clip0_325_1066">
<rect width="43.5714" height="50" fill="white"/>
</clipPath>
</defs>
</svg>
