<svg width="36" height="50" viewBox="0 0 36 50" fill="none" xmlns="http://www.w3.org/2000/svg">
<g clip-path="url(#clip0_325_1075)">
<path d="M24.0912 0C25.0818 0.0625 26.0763 0.0833334 27.0603 0.197917C29.065 0.428385 31.0709 0.661458 33.0586 0.996094C33.827 1.1263 34.5797 1.47135 35.2802 1.83073C35.9806 2.1901 36.1165 2.64714 35.9061 3.41927C34.4787 8.72277 32.083 13.7189 28.8389 18.1576C28.7539 18.2734 28.6808 18.3958 28.588 18.5352C29.2283 18.7096 29.8477 18.8438 30.4437 19.056C30.9054 19.2111 31.3465 19.4219 31.757 19.6836C32.4875 20.1615 32.5986 20.8164 32.1935 21.5872C31.2356 23.4102 30.5051 25.3112 30.3287 27.3945C30.2359 28.4714 30.526 29.401 31.101 30.2969C32.0667 31.8008 33.0416 33.3034 33.9158 34.8607C34.6911 36.2238 35.1401 37.7468 35.2279 39.3112C35.3703 41.9805 34.2478 44.1146 32.298 45.8411C29.5772 48.2513 26.3625 49.5456 22.7583 49.9089C22.5832 49.9271 22.4094 49.9688 22.2356 50H20.0806C18.9777 49.8047 17.8591 49.6875 16.7744 49.401C13.6525 48.5742 10.9003 47.0911 8.81333 44.5625C8.18416 43.8206 7.70908 42.9616 7.41566 42.0354C7.12224 41.1091 7.01631 40.134 7.10403 39.1667C7.12755 38.8659 7.01386 38.7318 6.78517 38.5924C5.68745 37.9232 4.5466 37.3086 3.51814 36.543C2.6145 35.8803 1.79289 35.1132 1.07049 34.2578C0.0119712 32.9753 -0.249391 31.4414 0.234129 29.8385C1.01821 27.2422 2.62951 25.3685 5.27319 24.5677C7.16022 23.9961 9.076 24.1589 10.9565 24.7227C11.1094 24.7682 11.261 24.8177 11.5537 24.9102C11.1891 24.0065 10.8689 23.2005 10.5344 22.401C10.4155 22.1172 10.2639 21.8464 10.1201 21.5729C9.69804 20.7695 9.80128 20.069 10.6024 19.6576C11.4452 19.2253 12.3835 18.9805 13.2826 18.6576C13.4318 18.6129 13.5831 18.576 13.7361 18.5469C13.2134 17.7773 12.6906 17.0495 12.1993 16.3047C9.57151 12.3176 7.60817 7.9333 6.38528 3.32161C6.21148 2.67057 6.31471 2.2487 6.90801 1.90885C7.51276 1.55889 8.15836 1.28426 8.83032 1.09115C10.8951 0.516927 13.0252 0.34375 15.1553 0.194011C16.1772 0.121094 17.2004 0.0638021 18.2224 0H24.0912ZM10.2391 34.556C9.84702 35.4544 9.4393 36.2682 9.13089 37.1185C8.04754 40.1003 8.75845 42.625 11.1146 44.737C16.5849 49.6432 25.8032 49.6159 31.2539 44.6888C33.8557 42.3372 34.2334 39.4805 32.8965 36.3555C32.8354 36.1936 32.7187 36.0584 32.5672 35.974C31.4303 35.4974 30.2973 35 29.1329 34.5964C26.4997 33.6849 23.9357 33.8477 21.4227 35.1029C18.1701 36.7253 14.8769 36.7109 11.5903 35.1602C11.1826 34.9674 10.7618 34.7891 10.2417 34.556H10.2391ZM11.1251 33.2096C11.5054 33.388 11.8412 33.5404 12.1705 33.7031C15.0756 35.1185 17.9662 35.0794 20.8595 33.6549C24.137 32.0391 27.4328 32.0339 30.7338 33.5951C31.0069 33.7253 31.2813 33.8464 31.5557 33.9714C31.1505 33.1877 30.6852 32.4363 30.164 31.724C29.1551 30.3385 28.5305 28.8398 28.7879 27.0833C28.9042 26.3021 29.0493 25.5117 29.2322 24.7396C29.3851 24.1055 29.6243 23.4935 29.8386 22.8216C24.1128 23.9948 18.2073 23.9948 12.4815 22.8216C12.7207 23.5872 12.9468 24.2812 13.1532 24.9805C13.8955 27.5013 13.7073 29.8607 11.9601 31.9635C11.653 32.3372 11.4204 32.7682 11.1277 33.2096H11.1251ZM8.42782 4.65495C8.42146 4.68155 8.42422 4.70952 8.43567 4.73438C9.29293 6.87326 10.1537 9.01042 11.0179 11.1458C11.0842 11.2721 11.1903 11.3732 11.3198 11.4336C11.8007 11.6732 12.2816 11.9128 12.7782 12.1133C15.6074 13.2526 18.3648 13.082 21.0712 11.6823C23.3019 10.5273 25.6803 10.3398 28.1058 10.8164C29.082 11.0078 30.0163 11.4089 30.9807 11.7188C31.838 10.3581 33.8675 5.29036 33.8414 4.66667C25.4316 6.10764 16.8363 6.10367 8.42782 4.65495ZM30.2189 13.2135C29.9784 13.0924 29.7968 12.9857 29.6047 12.9076C26.927 11.8216 24.2585 11.8255 21.6684 13.1302C19.9568 14.0153 18.0489 14.4564 16.121 14.4128C14.8443 14.3855 13.583 14.1288 12.3979 13.6549C12.4365 13.7505 12.4801 13.8439 12.5286 13.9349C14.281 16.8997 16.3785 19.5768 19.0731 21.7474C19.3385 21.9458 19.6567 22.0617 19.9879 22.0807C20.8321 22.1237 21.6867 22.1029 22.527 22.0807C22.7174 22.0766 22.902 22.0148 23.0563 21.9036C26.0488 19.543 28.3018 16.5638 30.2189 13.2135ZM34.0962 2.8125C33.3552 2.63802 32.7332 2.46224 32.1007 2.34896C28.6389 1.72786 25.1393 1.58073 21.6318 1.56771C17.8146 1.55208 14.004 1.67708 10.2338 2.34896C9.59219 2.46354 8.96231 2.64323 8.32589 2.79297C13.1428 4.6237 29.8856 4.52344 34.0962 2.8125ZM7.9809 35.6836C7.19681 35.2031 6.42187 34.7812 5.70574 34.2773C5.00898 33.7989 4.35332 33.2637 3.74553 32.6771C3.17837 32.1159 3.03201 31.375 3.27769 30.5938C3.5027 29.8253 3.92052 29.1267 4.49172 28.5638C5.79852 27.3112 7.38107 27.1406 9.04725 27.5C10.0247 27.7109 10.9722 28.0612 11.9588 28.3555C11.9588 27.9648 11.9497 27.5456 11.9588 27.1276C11.968 26.8398 11.853 26.6693 11.5668 26.6003C10.5213 26.3464 9.4981 26.0026 8.44351 25.849C5.42478 25.4128 2.74582 27.1276 1.79707 30.0156C1.37236 31.306 1.53571 32.5156 2.45048 33.5312C3.03252 34.17 3.68182 34.7444 4.38717 35.2448C5.35682 35.9375 6.39835 36.5286 7.44249 37.1849L7.9809 35.6836ZM11.4074 29.9154C10.1972 29.3646 8.98714 28.9258 7.66203 28.9089C6.42187 28.8932 5.51625 29.4297 4.96739 30.5612C4.63285 31.2461 4.62501 31.5443 5.2379 31.9935C6.3304 32.8008 7.47908 33.5312 8.60294 34.2917L11.4074 29.9154ZM30.6684 20.8242C29.6752 20.3697 28.6131 20.0828 27.5255 19.9753C27.4864 19.9711 27.4467 19.9748 27.409 19.9862C27.3713 19.9977 27.3363 20.0165 27.306 20.0417C26.7258 20.638 26.1521 21.2409 25.5444 21.8776C26.9832 21.901 29.6517 21.3542 30.6684 20.8242ZM16.8162 21.9193C16.1746 21.2461 15.6218 20.6628 15.0599 20.0859C15.0276 20.0521 14.989 20.0248 14.9461 20.0058C14.9033 19.9869 14.8571 19.9765 14.8103 19.9753C13.7034 20.0741 12.6238 20.3728 11.6243 20.8568C13.3075 21.5404 14.9945 21.7513 16.811 21.9193H16.8162Z" fill="#B98D58"/>
<path d="M34.096 2.81254C29.8854 4.52348 13.1426 4.62374 8.32568 2.7904C8.9621 2.64066 9.59198 2.46097 10.2336 2.34639C14.0038 1.67582 17.8131 1.55082 21.6316 1.56514C25.1391 1.57946 28.6387 1.7266 32.1005 2.34639C32.733 2.46228 33.355 2.63806 34.096 2.81254Z" fill="white"/>
<path d="M11.4072 29.9153L8.60274 34.2955C7.47888 33.5351 6.3302 32.8046 5.23771 31.9973C4.62481 31.5442 4.63265 31.246 4.9672 30.565C5.51606 29.4387 6.42167 28.8971 7.66184 28.9127C8.98694 28.9257 10.197 29.3645 11.4072 29.9153Z" fill="white"/>
<path d="M20.3809 26.1471C20.3704 26.0011 20.3704 25.8544 20.3809 25.7083C20.4449 25.2839 20.6998 25.0365 21.1297 25.0065C21.3281 24.9968 21.5224 25.0648 21.6711 25.196C21.8198 25.3271 21.9111 25.511 21.9256 25.7083C21.9457 25.9683 21.9487 26.2293 21.9347 26.4896C21.9164 27.0104 21.5858 27.3568 21.1284 27.3411C20.671 27.3255 20.394 26.9948 20.3731 26.4896C20.3731 26.3763 20.3731 26.2617 20.3731 26.1484L20.3809 26.1471Z" fill="#B98D58"/>
<path d="M20.3745 30.0781C20.3745 29.2773 20.6189 28.9062 21.1521 28.9062C21.6852 28.9062 21.9361 29.2773 21.9361 30.0703C21.9361 30.8633 21.6879 31.2422 21.1521 31.2422C20.6163 31.2422 20.3745 30.8737 20.3745 30.0781Z" fill="#B98D58"/>
</g>
<defs>
<clipPath id="clip0_325_1075">
<rect width="36" height="50" fill="white"/>
</clipPath>
</defs>
</svg>
