<svg width="62" height="50" viewBox="0 0 62 50" fill="none" xmlns="http://www.w3.org/2000/svg">
<path d="M52.7126 24.0258C52.5112 24.9314 52.4036 25.8732 52.091 26.7425C50.7019 30.598 48.0973 33.2242 43.9636 34.2418C43.4126 34.3777 43.0375 34.1931 42.9415 33.7596C42.857 33.3725 43.1093 33.0612 43.6129 32.9355C45.6423 32.4311 47.464 31.3285 48.8307 29.7771C50.1975 28.2258 51.0431 26.3009 51.2529 24.2635C51.4555 22.389 51.1545 20.6288 50.0953 19.0281C49.8777 18.6987 49.6057 18.4056 49.3765 18.1226C48.5546 18.5437 47.7559 18.8968 47.0092 19.3451C45.0228 20.5416 44.0944 22.3063 44.2738 24.5884C44.3815 25.9615 44.2125 27.2666 43.548 28.4925C43.2957 28.9578 42.9172 29.1208 42.5351 28.9261C42.1705 28.7404 42.0721 28.3443 42.3036 27.9005C42.8558 26.8761 42.9982 25.7905 42.8824 24.6518C42.7521 23.2685 43.0587 21.8795 43.7608 20.6719C44.4629 19.4644 45.5268 18.4964 46.809 17.8984C47.2488 17.6936 47.6795 17.4683 48.1807 17.2193C47.4198 16.7436 46.5514 16.4572 45.6514 16.385C43.2413 16.1835 41.2005 17.0404 39.4537 18.5923C38.7904 19.1878 38.2428 19.9167 37.6756 20.6072C37.4163 20.9219 37.1408 21.0827 36.7495 20.9366C36.6546 20.8993 36.5696 20.8412 36.5013 20.7667C36.4329 20.6921 36.383 20.6033 36.3554 20.5069C36.3277 20.4105 36.3231 20.3092 36.3419 20.2108C36.3607 20.1124 36.4023 20.0195 36.4636 19.9394C38.2 17.3981 40.5001 15.63 43.6349 15.1172C48.4354 14.3327 52.0852 17.5804 52.6293 22.0471C52.6478 22.1977 52.686 22.3471 52.715 22.4999L52.7126 24.0258Z" fill="#B98D58"/>
<path d="M29.2069 17.5525C28.8956 22.7221 26.8562 26.9302 22.156 29.4816C19.0686 31.1577 15.8891 31.1818 12.8755 29.2002C10.6205 27.7182 9.36846 25.524 8.82777 22.9266C7.65761 17.3262 10.2389 11.4766 15.142 8.53911C20.1512 5.53731 26.1219 7.54196 28.3088 12.9574C28.8928 14.42 29.1974 15.9785 29.2069 17.5525ZM22.9815 9.12959C22.669 9.01471 22.488 8.93544 22.299 8.878C19.8318 8.13818 17.5376 8.60114 15.4383 9.99118C11.9935 12.275 10.2389 15.5766 9.95412 19.6456C9.80079 21.8008 10.2239 23.8744 11.394 25.7423C11.9416 26.6135 12.6543 27.3701 13.4923 27.9698C14.1171 27.4793 14.6809 26.9853 15.2965 26.5694C17.9481 24.7785 18.9972 22.0512 18.1786 18.9782C17.7355 17.3464 17.8224 15.6167 18.427 14.0372C19.0316 12.4577 20.1227 11.1097 21.5438 10.1865C22.0038 9.88205 22.4385 9.53052 22.9815 9.12959ZM24.2496 9.84414C23.6213 10.3335 23.0748 10.8631 22.4373 11.2376C20.0382 12.6449 18.6882 15.9362 19.5448 18.8438C20.3518 21.5825 19.6393 24.0731 17.8074 26.2248C17.3463 26.7739 16.7145 27.1898 16.1461 27.6493C15.7207 27.9939 15.2734 28.3076 14.7627 28.6832C15.0083 28.7774 15.1385 28.8337 15.2723 28.8785C17.5111 29.631 19.6532 29.3024 21.6764 28.1961C26.2268 25.7193 28.7642 19.8329 27.4776 14.8127C26.9611 12.7839 25.9547 11.0814 24.2496 9.84414Z" fill="#B98D58"/>
<path d="M35.4595 40.7886C36.4915 40.3184 37.3931 39.6091 38.0875 38.7212C39.3443 37.1273 39.8882 35.2943 39.9408 33.2968C40.0665 28.4699 37.0226 23.6892 32.6659 21.9115C32.0703 21.6854 31.4594 21.5009 30.8377 21.3591C30.2927 21.2216 30.0116 20.9285 30.1099 20.5125C30.2081 20.0966 30.5669 19.9252 31.0925 20.0301C34.5786 20.7301 37.1563 22.7186 39.0576 25.61C40.6789 28.0742 41.489 30.7954 41.2868 33.741C41.0514 37.1735 39.6871 40.03 36.5393 41.7547C33.797 43.2562 30.9405 43.1592 28.1572 41.8561C24.0804 39.9454 21.7198 36.6572 20.6926 32.3747C20.5703 31.8607 20.7874 31.5033 21.209 31.4233C21.6306 31.3433 21.9174 31.6161 22.0511 32.1763C22.8635 35.5795 24.6848 38.2906 27.731 40.1247C29.51 41.1944 31.4433 41.6746 33.5377 41.377C34.1261 41.2936 34.0998 41.2959 34.1238 40.7187C34.1581 39.9037 34.2678 39.0921 34.2929 38.2771C34.3809 35.4815 33.1869 33.3622 30.7029 32.0399C29.1387 31.2069 27.8578 30.136 27.0088 28.5849C26.8999 28.404 26.8121 28.2115 26.7472 28.0111C26.7049 27.8616 26.7172 27.7023 26.7821 27.5609C26.847 27.4196 26.9602 27.3052 27.1019 27.238C27.2437 27.1708 27.4049 27.1549 27.5573 27.1932C27.7097 27.2315 27.8436 27.3215 27.9355 27.4475C28.0382 27.5994 28.1298 27.7584 28.2097 27.9232C28.8339 29.1058 29.8219 30.0629 31.0319 30.6568C33.6051 31.9351 35.1819 33.9687 35.5841 36.7913C35.7166 37.7236 35.5612 38.6953 35.5315 39.6501C35.5144 39.9995 35.4846 40.3501 35.4595 40.7886Z" fill="#B98D58"/>
</svg>
