<svg width="23" height="22" viewBox="0 0 23 22" fill="none" xmlns="http://www.w3.org/2000/svg">
<g clip-path="url(#clip0_317_1982)">
<path d="M11.6214 6.68652C9.41092 6.68652 7.61249 8.44577 7.61249 10.6081C7.61249 12.7704 9.41092 14.5297 11.6214 14.5297C13.8319 14.5297 15.6303 12.7704 15.6303 10.6081C15.6303 8.44577 13.832 6.68652 11.6214 6.68652Z" fill="white"/>
<path d="M20.1576 2.25782C18.7683 0.898769 16.9282 0.150391 14.9763 0.150391H8.26673C6.3148 0.150391 4.47461 0.898769 3.08546 2.25782C1.69614 3.61671 0.931091 5.41681 0.931091 7.32621V13.8894C0.931091 15.799 1.69614 17.5991 3.08546 18.958C4.47461 20.317 6.3148 21.0654 8.26673 21.0654H14.9763C16.9282 21.0654 18.7684 20.317 20.1576 18.958C21.5467 17.5991 22.3119 15.799 22.3119 13.8894V7.32621C22.3119 5.41681 21.5467 3.61671 20.1576 2.25782ZM11.6215 16.143C8.50146 16.143 5.96311 13.66 5.96311 10.6079C5.96311 7.55583 8.50146 5.07278 11.6215 5.07278C14.7416 5.07278 17.2799 7.55583 17.2799 10.6079C17.2799 13.66 14.7416 16.143 11.6215 16.143ZM17.89 5.34261C17.7735 5.45654 17.6119 5.52196 17.4471 5.52196C17.2822 5.52196 17.1209 5.45654 17.0044 5.34261C16.8874 5.22852 16.8207 5.07054 16.8207 4.90922C16.8207 4.74789 16.8874 4.58976 17.0044 4.47583C17.1209 4.36174 17.282 4.29647 17.4471 4.29647C17.6119 4.29647 17.7735 4.36174 17.89 4.47583C18.0066 4.58976 18.0735 4.74789 18.0735 4.90922C18.0735 5.07038 18.0066 5.22852 17.89 5.34261Z" fill="#E7E5EA"/>
</g>
<defs>
<clipPath id="clip0_317_1982">
<rect width="21.3808" height="20.915" fill="white" transform="translate(0.931091 0.150391)"/>
</clipPath>
</defs>
</svg>
